/* XPM */
static char *_2f15a63e5b94469b177a576f323ff5fnX9q06D1MKP6UkBj[] = {
/* columns rows colors chars-per-pixel */
"64 64 187 2 ",
"   c #000707",
".  c #040C0A",
"X  c #0C0C0D",
"o  c #120D0E",
"O  c #07100D",
"+  c #0D120E",
"@  c #13110F",
"#  c #1A120F",
"$  c #1B1C0F",
"%  c #0E1410",
"&  c #0D1C12",
"*  c #141411",
"=  c #1C1612",
"-  c #131B13",
";  c #1C1A13",
":  c #211612",
">  c #241B14",
",  c #291D15",
"<  c #072412",
"1  c #0C2414",
"2  c #0D2915",
"3  c #132315",
"4  c #1C2114",
"5  c #122917",
"6  c #1A2B17",
"7  c #132D19",
"8  c #1B2D19",
"9  c #0F3219",
"0  c #13321A",
"q  c #1A341B",
"w  c #163B1D",
"e  c #1B3C1D",
"r  c #242214",
"t  c #2A2516",
"y  c #2D2A16",
"u  c #2B2518",
"i  c #272918",
"p  c #282C18",
"a  c #322C16",
"s  c #322D1A",
"d  c #3B2F18",
"f  c #283317",
"g  c #24331B",
"h  c #233B1D",
"j  c #2B391C",
"k  c #393117",
"l  c #34311B",
"z  c #3B3219",
"x  c #3B3A1A",
"c  c #253720",
"v  c #2E3720",
"b  c #253C23",
"n  c #2B3B20",
"m  c #343E22",
"M  c #40341B",
"N  c #453C1B",
"B  c #4A3F1D",
"V  c #14421F",
"C  c #1F411F",
"Z  c #25411F",
"A  c #2A411F",
"S  c #31401C",
"D  c #38401D",
"F  c #1D4420",
"G  c #1C4B24",
"H  c #244421",
"J  c #2D4521",
"K  c #244C23",
"L  c #294C24",
"P  c #324626",
"I  c #3C4323",
"U  c #314C22",
"Y  c #364D28",
"T  c #265226",
"R  c #2B5326",
"E  c #2E5827",
"W  c #265729",
"Q  c #2C5628",
"!  c #2D5B2A",
"~  c #315426",
"^  c #325629",
"/  c #335C2A",
"(  c #3A5D2B",
")  c #2F602B",
"_  c #34632D",
"`  c #3B632E",
"'  c #33692E",
"]  c #3E692F",
"[  c #3D6630",
"{  c #356931",
"}  c #3D6B31",
"|  c #3E7133",
" . c #43431C",
".. c #4B421D",
"X. c #45481F",
"o. c #52441F",
"O. c #4D4120",
"+. c #464A20",
"@. c #544620",
"#. c #554920",
"$. c #5C4C23",
"%. c #524A28",
"&. c #4D5625",
"*. c #415C27",
"=. c #405B29",
"-. c #5C5428",
";. c #545C29",
":. c #614D25",
">. c #635326",
",. c #6B5427",
"<. c #665826",
"1. c #695826",
"2. c #60512A",
"3. c #6A5628",
"4. c #6D5B2B",
"5. c #705C2E",
"6. c #41632E",
"7. c #40682F",
"8. c #466535",
"9. c #4A6735",
"0. c #426C32",
"q. c #4A6C34",
"w. c #496C38",
"e. c #526B34",
"r. c #447334",
"t. c #4A7435",
"y. c #4D7936",
"u. c #457438",
"i. c #4B7539",
"p. c #4B7939",
"a. c #4E7B39",
"s. c #4B7E38",
"d. c #517135",
"f. c #507736",
"g. c #5A7036",
"h. c #507A37",
"j. c #53733C",
"k. c #527D3A",
"l. c #507B3C",
"z. c #597E3B",
"x. c #74622E",
"c. c #776531",
"v. c #796532",
"b. c #7B6B33",
"n. c #7E7133",
"m. c #7E7E3F",
"M. c #617B41",
"N. c #816F34",
"B. c #827237",
"V. c #86733A",
"C. c #877938",
"Z. c #8B7B3B",
"A. c #917F3E",
"S. c #4C803A",
"D. c #51813A",
"F. c #55823B",
"G. c #56823C",
"H. c #5A843C",
"J. c #5C893E",
"K. c #63823F",
"L. c #61893E",
"P. c #5C8341",
"I. c #5D8A41",
"U. c #5F9143",
"Y. c #628746",
"T. c #6C8743",
"R. c #638B41",
"E. c #6A8E42",
"W. c #738B43",
"Q. c #659442",
"!. c #6D9345",
"~. c #6D924A",
"^. c #729446",
"/. c #7C9246",
"(. c #729D4C",
"). c #779D52",
"_. c #83803F",
"`. c #8C803B",
"'. c #93833F",
"]. c #958441",
"[. c #938E46",
"{. c #9B8B44",
"}. c #9A9248",
"|. c #A08D46",
" X c #80A055",
".X c #84A854",
"XX c #87A958",
/* pixels */
"> > > > > > > > > > > > > > > > > > > > > > > > > > > > > > > > > > > > > > > > > > > > > > > > > > > > > > > > > > > > > > > > ",
"> > > > > > > > > > > > > > > > > > > > > > > > > > > > > > > > > > > > > > > > > > > > > > > > > > > > > > > > > > > > > > > > ",
"> > > > > > > > > > > > > > > > > > > > > > > > > > > > > > > > > > > > > > > > > > > > > > > > > > > > > > > > > > > > > > > > ",
"> > > > > > > > > > > > > > > > > > > > > > > > > > > > > > > > > > > > > > > > > > > > > > > > > > > > > > > > > > > > > > > > ",
"> > > > > > > > > > > > > > > > > > > > > > > > > > > > > > > > > > > > > > > > > > > > > > > > > > > > > > > > > > > > > > > > ",
"> > > > > > > > > > > > > > > > > > > > > > > > > > > > > > > > > > > > > > > > > > > > > > > > > > > > > > > > > > > > > > > > ",
"> > > > > > > > > > > > > > > > > > > > > > > > > > > > > > > > > > > > > > > > > > > > > > > > > > > > > > > > > > > > > > > > ",
"> > > > > > > > > > > > > > > > > > > > > > > > > > > > > > > > > > > > > > > > > > > > > > > > > > > > > > > > > > > > > > > > ",
"> > > > > > > > > > > > > > > > > > > > > > > > ; ; > > : = : : : > > > > > > > > > > > > > > > > > > > > > > > > > > > > > > > ",
"> > > > > > > > > > > > > > > > > > > > > > : = * ; = : : = = = ; > = = ; ; > > = > > > > > > > > > > > > > > > > > > > > > > > ",
"> > > > > > > > > > > > > > > > > > > > , : = @ * % X @ = = * * * * o @ * * = = * * > , > > > > > > > > > > > > > > > > > > > > ",
"> > > > > > > > > > > > > > > > > > > > : ; 4 g n n q g m I m n n j g g j n n g 3 - ; > > > > > > > > > > > > > > > > > > > > > ",
"> > > > > > > > > > > > > > > > > > > = @ 4 h ` d.d.` ( e.g.e.9.q.8.6.6.8.q.8.^ H 3 - * > > > > > > > > > > > > > > > > > > > > ",
"> > > > > > > > > > > > > > > > > > > = o 3 e 0.J.Q.D.s.J.R.R.J.G.S.S.a.D.k.y._ K 5 % * ; > > > > > > > > > > > > > > > > > > > ",
"> > > > > > > > > > > > > > > > > > > > * - 3 R t.F.r.r.i.l.l.u.| | | | 0.` _ K e 3 - * > > > > > > > > > > > > > > > > > > > > ",
"> > > > > > > > > > > > > > > > > > > > > * % 7 L [ } r.i.a.l.i.} ' { _ / K e 7 3 - ; > > > > > > > > > > > > > > > > > > > > > ",
"> > > > > > > > > > > > > > > > > > > > > = * 3 7 Q } G.H.I.R.H.a.| | _ ) F 0 & - ; > > > > > > > > u u > > > > > > > > > > > > ",
"> > > > > > > > > > > > > > > > > > > > > > : * + e _ J.R.!.E.J.G.p.y.} ! w 1 + = > > > > > > > > > u u > > > > > > > > > > > > ",
"> > > > > > > > > > > > > > > > > > : : : > : = + 0 R S.R.!.L.k.a.p.a.0.E w 1 + ; > : : : : : > > > > > > > > > > > > > > > > > ",
"> > > > > > > > > > > > > > > > ; = = = = > > = + 1 F r.T./.L.a.i.i.D.r._ e 1 + ; > > ; ; = = = > > > > > > > > > > > > > > > > ",
"> > > > > > > > > > > > > > > ; @ + + * * = = = + 1 w q._.}./.G.i.r.a.r.] H 3 X * ; r 4 - % % * > , > > > > > > > > > > > > > > ",
"> > > > > > > > > > > > > > = - 4 c P Y J g 4 + . 1 V q.m.[.W.G.k.y.F.y.0.H 3 X @ p S U H q 7 3 ; > > > > > > > > > > > > > > > ",
"> > > > > > > > > > > > > = X 3 b 9.M.T.z.~ 8 .   < G r.K.W.H.D.F.J.L.h.} e & . @ j =.t.] E T q 3 * > > > > > > > > > > > > > > ",
"> > > > > > > > > > > > > * X g 8.).XX.X(.t.^ q q H _ S.G.G.a.y.F.J.J.h.} K q 6 f *.k.U.J.r.} F 3 o = > > > > > > > > > > > > > ",
"> > > > > > > > > > > > > # X v M.XX X~.R.a.w.8.8.w.t.F.J.H.a.t.y.k.l.a.r.` ^ ~ ( t.H.R.J.r.] H 3 o = > > > > > > > > > > > > > ",
"> > > > > > > > > > > > > # o v j.(.~.P.k.k.P.Y.Y.P.h.y.F.J.H.H.F.a.u.r.r.r.} 0.r.a.k.H.J.h.] h 3 o = > > > > > > > > > > > > > ",
"> > > > > > > > > > > > > = o 6 ~ a.G.H.k.p.D.z.l.w.[ } y.J.E.E.E.D.r.{ } ] / / ` 0.0.f.L.k.` q - o = > > > > > > > > > > > > > ",
"> > > > > > > > > > > > > ; o & 0 _ k.R.p.r.y.a.j.8./ Q _ k.E.^.E.h.} ! _ ` ` ] ] _ E 0.J.k./ 7 - * = > > > > > > > > > > > > > ",
"> > > > > > > > > > > > > = @ & 9 ` R.!.i.[ r.k.P.j.( T T } H.R.J.r.` ^ ^ ] t.y.t.` E ` k.y./ 0 - @ = > > > > > > > > > > > > > ",
"> > > > > > > > > > > > , = o 1 0 0.E.^.i.( ] t.i.i.0.Q F R t.J.k.0./ ^ ` r.t.t.0.` E _ r.r.W 0 - * = > > > > > > > > > > > > > ",
"> > > > > > > > > > u u , = o 3 H r.J.R.t.` ` / ^ ` t.[ L K 0.J.H.r.Q Q 0.t.` ~ / / / { r.} R 7 & * = > > > > > > > > > > > > > ",
"> > > > > > > > > > u u , = o 3 Z } h.H.y.} / R K ` F.h.~ L ] D.k.0.R / a.k.` L R ^ / _ _ Q F 5 - * > > > > > > > > > > > > > > ",
"> > > > > > > > > > > > , = * 3 8 ^ t.J.D.0.` ^ / t.L.z.( R 0.y.t.` E ` a.F.t.` / ^ ! W T F q 3 - * > > > > > > > > > > > > > > ",
"> > > > > > > > > > > > > > ; - & e ( s.a.a.t.0.[ t.J.k.` / 0.t.] / ^ ] t.a.0.} 0.0.} Q F 0 2 - ; : > > > > > > > > > > > > > > ",
"> > > > > > > > > > > > > > > ; % 0 K } r.a.H.h.] ` t.t.` ` t.t.` Q ^ ] 0.0./ _ y.F.t./ K 9 2 & ; > > > > > > > > > > > > > > > ",
"> > > > > > > > > > > > > > , = + 1 e _ r.G.J.t.R R 0.r._ ( t.t.7.^ Q / 0.` K R t.L.h._ K 0 1 - ; > > > > : > > > > > > > > > > ",
"> > > > > > > > > > > > > > , = X 1 e } z.I.a./ F L r.h.( / 0.y.t.` R E r.} K L 0.k.r.! K 0 3 * = : > > > > > > > > > > > > > > ",
"> > > > > > > > > > > > > > > = * & 5 ^ h.I.k._ K K ] 0./ / 0.a.k.r.E Q ` ` R R 0.r.} T F 5 - = > : > > > > > > > > > > > > > > ",
"> > > > > > > > > > > > > > > > = - & C [ J.J.y.` R ^ / ^ _ 0.y.F.t.` R Q ^ / ] r.| _ K w & - ; r t > : > > > > > > > > > > > > ",
"> > > > > > > > > > > > > > > > > - O 2 L t.H.J.D.0.` / _ } t.k.F.k.y.0.` 7.t.a.u._ W e 5 * * > u u > = > > > > > > > > > > > > ",
"> > > > > > > > > > > > > > > > > ; @ 3 e _ y.J.J.F.k.r.} r.k.J.F.H.L.L.J.H.J.a.r.W G 7 3 * = > > > > > > > > > > > > > > > > > ",
"> > > > > > > > > > > > > > > > > > = - 5 F Q } r.a.k.r.} { r.t.0.r.h.F.F.D.k.} ! F 0 & - = = > > > > > > > > > > > > > > > > > ",
"> > > > > > > > > > > > > > > > > > > ; - 7 e G K E _ _ ! W W Q Q Q Q E ! ! ! T F 0 1 & ; > > : > > > > > > > > > > > > > > > > ",
"> > > > > > > > > > > > > > > > > > , : o % 3 e h U ~ ( ( ~ J A J A h h h Z Z e q 1 & * > , > > > > > > > > > > > > > > > > > > ",
"> > > > > > > > > > > > > > > > > > , = X + 4 x +.;.;.;.;.&.+. .X. .x z x x D j f 3 % * ; , > > > > > > > > > > > > > > > > > > ",
"> > > > > > > > > > > > > > > > > > ; ; ; s O.4.x.n.b.b.n.v.x.4.x.4.,.:.:.#.#... .f 4 * ; > > > > > > > > > > > > > > > > > > > ",
"> > > > > > > > > > > > > > > > > ; * 4 l -.v.A.Z.`.Z.Z.A.Z.Z.C.Z.Z.V.b.v.4.<.$.-. .y ; = = > > > > > > > > > > > > > > > > > > ",
"> > > > > > > > > > > > > > > > > = @ p %.V.].|.{.].].{.{.{.{.{.{.].'.Z.Z.b.x.1.<.#.N u ; * ; > > > > > > > > > > > > > > > > > ",
"> > > > > > > > > > > > > > > > = ; $ x 2.V.Z.A.Z.A.].{.{.{.{.].].Z.B.B.V.N.x.<.$.....k r * ; ; > > > > > > > > > > > > > > > > ",
"> > > > > > > > > > > > > > > > = ; ; z $.x.4.4.x.c.v.B.C.Z.Z.B.v.5.4.4.x.x.4.$.@.N B k r * ; ; > > > > > > > > > > > > > > > > ",
"> > > > > > > > > > > > > > > > ; - - s O.:.#.#.:.>.$.>.x.N.b.x.3.$.$.$.>.>.:.#.o.N x y r * = > > > > > > > > > > > > > > > > > ",
"> > > > > > > > > > > > > > > > > ; * ; a k a a d d y a N @.@.B M z M z k k z M z a u ; ; ; = > : > > > > > > > > > > > > > > > ",
"> > > > > > > > > > > > > > > > > ; ; ; r r > > r r ; 4 r y y i i u u t > ; r u r 4 ; - - ; > : > > > > > > > > > > > > > > > > ",
"> > > > > > > > > > > > > > > > > > ; ; ; * ; ; = * * % * * @ * - ; ; = % % * = ; * * * ; > > > > > > > > > > > > > > > > > > > ",
"> > > > > > > > > > > > > > > > > > > > > > > > > ; - - ; = = = - ; > ; * * ; > > ; ; ; > > > > > > > > > > > > > > > > > > > > ",
"> > > > > > > > > > > > > > > > > > > > > > > > > > ; ; > > > : ; ; > > ; ; > > > > > > > > > > > > > > > > > > > > > > > > > > ",
"> > > > > > > > > > > > > > > > > > > > > > > > > > > > > > : > > > > > > > > > > > > > > > > > > > > > > > > > > > > > > > > > ",
"> > > > > > > > > > > > > > > > > > > > > > > > > > > > > > > > > > > > > > > > > > > > > > > > > > > > > > > > > > > > > > > > ",
"> > > > > > > > > > > > > > > > > > > > > > > > > > > > > > > > > > > > > > > > > > > > > > > > > > > > > > > > > > > > > > > > ",
"> > > > > > > > > > > > > > > > > > > > > > > > > > > > > > > > > > > > > > > > > > > > > > > > > > > > > > > > > > > > > > > > ",
"> > > > > > > > > > > > > > > > > > > > > > > > > > > > > > > > > > > > > > > > > > > > > > > > > > > > > > > > > > > > > > > > ",
"> > > > > > > > > > > > > > > > > > > > > > > > > > > > > > > > > > > > > > > > > > > > > > > > > > > > > > > > > > > > > > > > ",
"> > > > > > > > > > > > > > > > > > > > > > > > > > > > > > > > > > > > > > > > > > > > > > > > > > > > > > > > > > > > > > > > ",
"> > > > > > > > > > > > > > > > > > > > > > > > > > > > > > > > > > > > > > > > > > > > > > > > > > > > > > > > > > > > > > > > "
};
