/* XPM */
static char *_0bee2c78c764207aaca86d7d5b4406elUuQf9q0jK7Rpqcm[] = {
/* columns rows colors chars-per-pixel */
"64 64 230 2 ",
"   c #04091A",
".  c #0D121D",
"X  c #18151C",
"o  c #2B1C1E",
"O  c #381E1A",
"+  c #3F2119",
"@  c #030D24",
"#  c #0C1423",
"$  c #0A1729",
"%  c #161A26",
"&  c #131C2B",
"*  c #071C37",
"=  c #151E30",
"-  c #281E23",
";  c #1D222B",
":  c #08203C",
">  c #1C2432",
",  c #172438",
"<  c #22232C",
"1  c #29272A",
"2  c #3A2927",
"3  c #3C302F",
"4  c #212534",
"5  c #242933",
"6  c #262B37",
"7  c #2D3237",
"8  c #373839",
"9  c #4E1B0D",
"0  c #671A01",
"q  c #55210F",
"w  c #44231C",
"e  c #492418",
"r  c #4C2B1D",
"t  c #542414",
"y  c #5B2313",
"u  c #562B1C",
"i  c #59331C",
"p  c #65240B",
"a  c #6C270D",
"s  c #752B0E",
"d  c #79290A",
"f  c #79310E",
"g  c #632613",
"h  c #672A14",
"j  c #742C11",
"k  c #7A2E11",
"l  c #6B3315",
"z  c #683519",
"x  c #733415",
"c  c #7D3312",
"v  c #773B18",
"b  c #723C1A",
"n  c #452825",
"m  c #4B2C23",
"M  c #532B23",
"N  c #49322A",
"B  c #433431",
"V  c #483B36",
"C  c #673B23",
"Z  c #643C2B",
"A  c #723D23",
"S  c #774019",
"D  c #4C423B",
"F  c #54463D",
"G  c #68412E",
"H  c #754026",
"J  c #001E44",
"K  c #082648",
"L  c #152B47",
"P  c #1B2C44",
"I  c #1F314B",
"U  c #0D2D51",
"Y  c #1A3456",
"T  c #212E44",
"R  c #24334B",
"E  c #363D42",
"W  c #3A3F42",
"Q  c #243753",
"!  c #293A56",
"~  c #3D4244",
"^  c #3D4348",
"/  c #454443",
"(  c #494847",
")  c #4D4C4A",
"_  c #584D45",
"`  c #54524E",
"'  c #5A574D",
"]  c #4E5050",
"[  c #545352",
"{  c #5A5B57",
"}  c #625144",
"|  c #69584B",
" . c #765B4C",
".. c #695D52",
"X. c #5E615E",
"o. c #6A665C",
"O. c #736558",
"+. c #5A6261",
"@. c #656A65",
"#. c #6C6C63",
"$. c #736E63",
"%. c #7A6F60",
"&. c #6B726C",
"*. c #747165",
"=. c #7B7466",
"-. c #78756A",
";. c #7D796C",
":. c #6F7670",
">. c #737B74",
",. c #787B75",
"<. c #842B08",
"1. c #8B2C09",
"2. c #892E0A",
"3. c #8A360D",
"4. c #9D3102",
"5. c #96380C",
"6. c #823413",
"7. c #8A3612",
"8. c #853B14",
"9. c #943B11",
"0. c #9A3D12",
"q. c #AA3303",
"w. c #A63807",
"e. c #A2370B",
"r. c #B73C06",
"t. c #C53E02",
"y. c #91410E",
"u. c #9B4214",
"i. c #974816",
"p. c #A3450B",
"a. c #AA430B",
"s. c #BC430B",
"d. c #A54713",
"f. c #AE4A10",
"g. c #BD4610",
"h. c #B24C10",
"j. c #B94E10",
"k. c #B05413",
"l. c #904827",
"z. c #B75526",
"x. c #B56637",
"c. c #CA4606",
"v. c #C5430A",
"b. c #CD490C",
"n. c #D54302",
"m. c #D84903",
"M. c #D44C0A",
"N. c #DA4D09",
"B. c #DD5102",
"V. c #D2530B",
"C. c #DC540B",
"Z. c #D3590E",
"A. c #DC590C",
"S. c #C65A14",
"D. c #C95E12",
"F. c #D05A13",
"G. c #E74801",
"H. c #E4530C",
"J. c #E8550D",
"K. c #E35B0D",
"L. c #E95D0C",
"P. c #F55B0A",
"I. c #C46015",
"U. c #D86415",
"Y. c #EB6108",
"T. c #EC620D",
"R. c #F2610C",
"E. c #FE650B",
"W. c #F46A0E",
"Q. c #FD6C0D",
"!. c #FF740E",
"~. c #E96A12",
"^. c #F16911",
"/. c #FF7411",
"(. c #FF7B11",
"). c #CE6C2F",
"_. c #C76432",
"`. c #A96D4F",
"'. c #B77748",
"]. c #B37955",
"[. c #827C6D",
"{. c #887A6A",
"}. c #817E72",
"|. c #7A827A",
" X c #FF8110",
".X c #BD825E",
"XX c #858374",
"oX c #8C8674",
"OX c #8F8976",
"+X c #87887A",
"@X c #8D8B7C",
"#X c #908A77",
"$X c #948D7A",
"%X c #97907D",
"&X c #99927E",
"*X c #BF9478",
"=X c #C8895F",
"-X c #C5916D",
";X c #7F8A83",
":X c #828C85",
">X c #959182",
",X c #9C9582",
"<X c #9F9885",
"1X c #989789",
"2X c #9C9A8B",
"3X c #A19A86",
"4X c #A49D8A",
"5X c #A89F8B",
"6X c #9EA191",
"7X c #A7A08C",
"8X c #AAA28E",
"9X c #A4A392",
"0X c #ADA591",
"qX c #ADA692",
"wX c #AEA894",
"eX c #B0A793",
"rX c #B1A995",
"tX c #B1AA95",
"yX c #B5AD99",
"uX c #B8AE98",
"iX c #B7B19C",
"pX c #BBB39D",
"aX c #BBB6A8",
"sX c #CDB48E",
"dX c #C0BAA4",
"fX c #D8CEAB",
"gX c #E0D6AC",
"hX c #D3DCC9",
"jX c #D2E0CC",
"kX c #ECFFE7",
/* pixels */
"qXrXrXqX4X3X4X8XqXqXqX8X4X,X,X3XqXyXyXeX7X,X%X<XqXwX4X&X&X,X4X8X8XqXyXrX7X3X3X8XrXrXrX8X<X%X$X<XqXyXyXqX4X,X%X<XqXqX<X$X$X,X4XqX",
"8X8XqX8X3X3X7XqXqXqXqX8X4X,X&X,X7XwXwX8X4X,X,X4XqXwX8X,X&X%X,X3X4X8XqX8X3X<X4XqXqXeXqX8X3X&X$X,X5XwXrXqX4X,X,X4XqXqX4X,X%X,X3X4X",
"4X4X4X3X,X3XqXrXqXqXqXqX8X<X$X$X<X7X7X4X<X<X3X8XqXqXqX4X,X#XOX$X,X4X3X,X&X,X8XrXqX8XqX8X4X,X%X&X<X7X8X7X3X<X4X7X8XqXqX4X,X$X&X,X",
"3X<X,X,X%X<X8XrXqX8XqX8X4X,X$X$X<X3X<X,X,X3X8XrXrXyXyXqX3X&X$X,X4X4X,X&X&X4XeXyXrXqXqX8X4X,X%X&X<X3X<X,X,X3X7XqX8XqXrX8X<X$X%X&X",
"4X<X,X%X$X,X4XqXqX8X8X3X,X%X%X,X4X4X,X&X,X4X8XuXpXpXpXyX8X4X8XeXyXeX8X4X3XqXyXpXiXyXyX8X<X%X&X<X4X4X,X$X$X,X5XqXqXeXrX7X,X,X<X3X",
"8X4X4X<X,X&X,X<X3X4X3X%XOX$X,X8XqXqX8X,X@X+X>X2X9X9X4X,X>X1X9X9X9X4X2X1X,X,X,X<X2X2X1X>X%X&X<X8XqX8X<X$X$X%X<X5XqXqX8X3X<X3X8XqX",
"8XqXqXqX4X&X$X$X,X<X,X$XoX$X3XeXeXrXyX2X|.&.>.|.:X;X,.>.>.|.:X:X:X;X:X:X+X|.,.>.|.|.|.|.@X4X8XwXqX8X8X3X&X$X$X,X4X4X,X,X3X8XqXrX",
"qXqXrXqX4X&X#X$X<X4X,X$XOX$X4XyXiXrXqX[...F } | ..| } _ } | O.O.....O.O.O.| } _ } } _ ..%.>XqXiXrXqXqX4X,X#XOX$X,X,X$X&X3XqXwXrX",
"qXqXqX5X,X$X$X<XqXqX5X,X#X$X3XyXdXwX@X| Z h z A A A A A A A H H A A H H H A A A A b l Z } ;.4XpXrX8X8X3X,X$X#X$X&X&X$X%X<X8XqXwX",
"5X4X3X,X$X&X<XqXwXrXqX4X,X,X3X5X9XoX .v 1.q.q.w.4.4.w.w.4.4.4.4.4.4.4.4.4.4.4.w.w.q.q.5.v  .{.2X7X7X<X&X&X,X,X<X<X<X,X,X,X<X3X4X",
"3X,X&X$X$X,X7XwXqXqXqXqX8X4X4X$X,. .l.w.b.H.M.c.v.v.v.v.v.v.v.v.v.v.v.v.v.v.v.v.c.N.H.M.w.l. .|.,X7X&X$X%X3X5X8X8X4X4X3X,X&X,X,X",
",X%X$X#X#X<XqXrX8X8XqXrXqX7X7XXX{ Z 5.n.P.E.P.L.J.H.J.J.J.H.J.J.J.J.J.J.J.J.H.J.J.P.E.P.n.5.Z X.@X7X$XOX,X8XrXrXqXqXrX8X,X#X$X$X",
",X%X$X$X$X<X8XqX8X8XqXqX8X4X8XXX{ Z 0.n.N.J.L.L.K.K.K.K.K.K.K.K.K.K.K.K.K.K.K.K.L.L.J.N.n.0.Z X.$X8X$X#X3XqXeXqX8XqXyXqX,X#X$X$X",
"3X<X,X&X$X$X,X3X4X4X4X3X,X3XqX@XX.Z 0.n.c.C.K.Y.L.L.L.L.L.L.L.L.L.L.L.L.L.L.K.L.L.K.C.c.n.u.Z @.>XqX,X$X<X8XqXqX8XqXqX8X<X&X,X,X",
"8X8X4X,X$XoX#X,X<X<X,X$X$X<XrX>X@.G 0.t.n.H.L.T.L.L.L.L.L.T.L.L.L.L.L.T.T.L.L.L.T.L.J.n.t.0.G @.1XyX3X$X&X3X8XqXqX8X4X3X<X3X4X4X",
"rXqX8X<X$XOX$X,X<X,X$XoXoX<XyX1X@.G u.c.v.g.h.f.f.h.f.f.f.h.h.h.h.f.h.h.h.h.h.h.f.h.s.v.c.u.Z @.>XpXwX3X&X%X<X4X4X3X&X,X3XqXqXqX",
"rXqX5X<X,X,X<X4X5X3X$X#X#X4XiX<X@.G d.c.a.8.x z z l l l l l l l l l l l l l l l z l 6.a.v.d.C { $XpXiX8X,X$X%X,X,X&X$X,X4XwXwXrX",
"qX4X<X,X3X8XqXqXqX4X<X%X$X$X,X;.` C d.h.9.l b b b l l l l l l l l l l l l l x x b b h 8.h.i.i / *.4XqXqX,X$X%X&X&X%X$X,X3X8XqXrX",
"7X3X&X,X4XqXqXqX8X7X8X,X$X[.*.' V i i.d.8.y.k.U.S.j.j.j.j.j.j.j.j.j.j.j.j.j.j.S.U.k.8.v d.i.u 8 ' XX<X4X&X%X<X4X4X<X,X&X,X4X8XqX",
",X,X%X,X4XqXqXqX8X8XrX4X$Xo.( 1 1 i 8.u.c d.~.(.Q.R.R.R.R.R.R.R.R.R.R.R.R.R.R.Q.(.~.d.c u.8.r 1 7 { ;.3X,X3X8XqXqX8X5X,X$X$X,X3X",
"$X%X&X<X3X8XqXqX8X8XeX4X>X{ 8 % ; M 6.0.3.f.~.(.W.L.L.L.L.L.L.L.L.L.L.L.L.L.Y.W.(.~.f.3.0.6.m % % ~ o.,X4XqXqXqXqXqXqX3X$XoX$X$X",
"%X,X4X4X3X<X3X7X8X8XqX3X>XX.7 # = m j 5.1.f.U./.T.A.K.K.K.K.K.K.K.K.K.K.K.K.A.~./.U.f.1.5.j m = # 7 ..%X4XwXqXqXqX8X8X<X$XOX$X$X",
"3X4X8X8X3X,X,X3X5X8X8X<X&Xo.W & > n j 1.s d.U./.T.A.K.K.K.K.K.K.K.K.K.K.K.K.A.T./.U.d.s 1.j m 4 = E o.$X,X8XqXrXqX4X,X$X$X&X<X3X",
"8XqXqX8X<X$X#X&X3X5X4X,X&Xo.^ > 6 n g d a u.U.(.Q.T.T.T.T.T.T.T.T.T.T.T.T.T.T.Q.!.U.u.a d g n 4 > ^ #.&X3X4X8X7X3X%X#X$X,X5X8XqX",
"8XqXqX4X,XOXOX$X,X4X3X&X%Xo.E & 4 n y a g d.~. X(.!.!.Q.Q.Q.!.Q.Q.Q.Q.Q.Q.Q.Q.!. X~.d.g a y n 4 % W *.7X4X4X4X,X$XOX#X,X4XqXqXqX",
"8X8X5X<X%X#X$X,X3X4X7X3X3Xo.7 # % n y s a u.D.~.U.I.I.D.D.D.D.D.D.D.D.D.D.D.S.U.~.D.u.a a t + % . ~ [.rX8X3X,X$X$X#X#X,X4XqXqXqX",
"qX7X3X&X%X&X,X4X7XqXrXqX8X#.7   X + y k k 7.d.i.S z b S S S b b S S b b S S z S i.d.7.j j t O X . ~ }.yX7X,X$X$X<X,X$X$X<X8XqXqX",
"4X<X%X$X,X4XqXqXqXrXyXrX8X}.{ 7 1 + g <.1.x i 2 < , > 5 < ; ; < 5 5 5 5 5 > , 4 2 i x c a e O 1 8 #.$X8X3X&X&X3X8X8X3X,X,X,X3X4X",
",X%X#X$X3XqXrXrXqXqXqX8X4X%X@Xo.( n g <.1.h 2 , , L P P , , , P P P P P P P L L , 2 l f p w 2 ) *.<X3X3X,X<X4XqXqXqX8X4X,X%X&X,X",
",X,X%X%X<X8XqXqX8X4X4X3X<X,X3X;.] 2 t d 3.z < K U Y Y L L L L Y Y Y Y Y Y Y Y U J < z 3.p + 1 ] [.4X,X&X&X3X8XqXqXqXrX8X,X$X%X%X",
"qX7X3X,X%X,X3X7X4X4X3X<X,XoX;.` E 1 e d 5.b 1 K Y ! R T P T Q ! ! ! ! ! ! ! ! P J 1 b 9.f w 1 7 ) =.oX,X,X<X4X8X8XqXqX8X<X&X,X<X",
"yXrXwX3X&X$X&X3X4X5X4X<X>X$._ m i h y j 5.b 1 K Y R , , P I Q Q Q Q Q Q Q R R L * 1 b y.c h h u O F =.4X<X,X&X,X4X8X7X3X,X<X4XqX",
"rXrXrX8X3X,X,X3X8XqXeX5X1Xo.V p e.a.c l 3.z 4 J K K * : K U U U U U U U U K K J * ; z 3.l c a.5.0 V ;.9X4X&X#X%X4X8X3X,X,X3X8XrX",
"8X8XqX8X4X3X4X8X8XrXyXqX6Xo.N 0 q.s.7.x 3.x n , > < < < 6 6 6 6 6 6 6 6 6 4 > ; & 2 x 3.x 7.r.q.0 V [.9X<X&X%X,X4X8X3X,X,X<X4X8X",
"3X4X4X4X<X3X8XrXqXqXrXwXwX=.V 9 0 1.j 8.0.9.l m r r r r m m m m m m m m r r r r r l 3.5.6.k 1.d 9 D ;.7X,X,X3X8X8X8XqX5X<X,X<X3X",
"3X3X<X,X%X<X8XrX8X7XqXqXqX#X$.V m y j 0.s.v.a.p.p.p.a.a.p.p.p.p.p.p.p.p.p.p.p.p.p.a.s.r.e.j y N F $.XX,X%X<X8XrXqXqXrXqX3X%X,X,X",
"7X4X,X$X$X&X3X8X7X5X8X4X3X,X,X=.) M k r.c.C.V.V.Z.A.A.A.A.A.A.A.A.A.A.A.Z.Z.A.C.V.M.M.v.r.c M ) ;.<X>X>X%X3X4XqXeXrXrX7X,X&X<X4X",
"qX8X4X,X$X$X&X,X<X3X3X,X$X3XyX>X+.N c r.N.L.L.R.E.E.E.E.E.E.E.E.E.E.E.E.Q.Q.E.E.P.L.L.C.t.6.m { @XyX4X,X,X,X,X4X8XqX8X3X,X3X7XqX",
"eXqXqX4X,X%X&X&X,X,X,X&X$X,X8XoX{ M 6.r.M.L.K.K.L.T.T.T.T.T.T.T.L.L.L.L.Y.T.L.L.L.L.L.V.t.6.u ) -.4X7X5X<X%X$X,X3X4X,X,X3X8XqXrX",
"rXrXrX8X3X&X&X,X<X<X,X$X$X[.*.` 8 u 6.c.K.T.K.C.A.A.A.K.K.K.K.A.A.A.A.A.A.A.A.A.A.K.T.K.c.<.e 7 / *.,XqX<X#XOX$X,X,X$X&X4XqXeXrX",
"rXqXqX4X,X&X&X3X8X8X4X&X$Xo.( ; & w 6.V.T.W.K.N.C.H.A.A.K.K.K.K.K.A.A.K.A.K.K.A.N.J.W.T.V.6.w % % ) XX8X,X#X#X$X,X,X$X$X<X8XqXeX",
"8X4X3X,X$X&X<X8XrXrXqX3X,Xo.6   @ w 7.C.W.W.K.N.H.L.L.T.T.T.T.T.T.T.T.T.T.T.T.C.N.H.W.W.C.7.w @   8 *.3X&X%X,X<X3X3X,X,X,X<X3X4X",
"3X,X%X#X#X&X4XqXrXrXrX8X4X$.W $ = M 9.B.Y.Y.B.N.K.^.Q.Q.Q.Q.Q.Q.Q.Q.Q.Q.Q.W.T.C.m.B.Y.Y.B.9.m * $ ~ $.3X,X3X4X4X4X4X4X3X,X&X%X%X",
",X%X#XoXoX,X8XrXqXqXyXrXqX-.( , , M 5.b.F.).).).U.Z.Z.V.Z.Z.Z.Z.Z.Z.Z.Z.Z.Z.V.F.).).).F.M.5.M , , ^ o.&X4XqXqXqXqXqXqX8X,X$X#XOX",
"<X&X#XoXOX,XqXrX8XqXyXrX8X*.^ & , M 1.g.z..X-X=X_.a.5.3.9.9.9.9.9.9.u.u.9.0.w.x.=X-X.Xz.g.1.m , = W o.&X8XrXqXqXqXeXrX7X,X$X$X#X",
"4X3X,X%X$X,X3X4X3X4XqX8X4X#.~ & > M 1.z.].aXhXsX'.<.p 9 y y y y y y g y y p <.'.sXhXaX].z.1.m , & W o.&X4XqX8X8XqXqX8X3X,X&X,X,X",
"8X8X8X<X%X$X$X,X,X4X8X3X,X#.W & & r 1._.*XjXkXgX'.d p q y g y y y y g y q p <.'.gXkXjX*X_.1.r & & ~ #.&X,X3X4XqXqX8X3X,X&X,X3X4X",
"qXqXrX4X&XOXOX%X,X4X4X,X$Xo.W % & e 1._.-XfXgXsXx.d p t y y t t t t y y t p d x.sXgXfX-X_.1.e $ # ^ -.3X&X$X,X3X4X<X%X$X,X4X8XqX",
"qXqXqX3X$XOX$X,X3X3X3X,X%Xo.W # # w 6.z.x.].].`.l.d g e t t t t t t t t e g k l.`.].].x.z.6.w # # / ;.7X,X$X$X$X$X$X#X&X3XqXqXrX",
"qX8X3X,X$X,X4X8X8X5X8X3X,Xo.8 # $ o u 9.r.t.q.w.w.0.7.c 6.7.7.7.7.7.7.6.c 7.0.w.q.q.r.w.9.u 1 $ # W ;.7X<X%X%X%X%X$XOX%X3XqXqXeX",
"qX4X%X#X&X4XqXrXqXqXrX8X3Xo.8 # $ % O <.r.G.G.m.N.b.v.s.v.b.b.b.b.b.b.v.v.v.b.N.m.n.n.w.d O % * # 8 *.3X,X,X<X4X4X,X$X#X&X4X7XqX",
"3X,X#X#X&X4XqXrXrXrXyXqX3Xo.V % * $ # q 5.n.t.s.s.s.r.r.s.v.v.b.v.v.v.s.s.s.s.s.v.r.q.d 9 # $ & & / *.3X,X4X8XrXrX8X<X$X$X%X,X<X",
"$X$X%X%X$X,X4XwXrXrXrX8X4X*.F - % # . O g <.k s j j a p a s s s s s s s a a j k k s a e o # . % < ` =.3X3X8XqXrXeXqX8X<X%X#X$X$X",
"$X,X4X3X$X#X%X4X8XqX4X<X<XoXO._ / 7 7 7 3 B V V V B 3 2 2 3 3 B B B B B 3 3 3 B V B 3 7 7 7 1 V ' ;.oX,X,X4X8XrXqXqXqX4X&X#X$X$X",
"3X4XqX7X,X@XOX%X<X<X&X%X,X,X%X[.$.{ [ ) ( ` { { { ` ( / / ( ) [ [ [ [ [ ( ( ( ) ` [ ) ( ( ( ) o.[.&X&X&X$X,X4XqXqXqX4X,X&X%X,X,X",
"8XqXyXqX4X$XOX#X&X&X$X$X,X5XrXrX4X$XoX-.@.@.:.,.:.&.@.@.&.:.>.,.,.,.,.>.&.@.@.&.:.:.&.#.o.%.[.,X8XeX4X,X$X$X,X3X4X<X&X&X<X4X4X4X",
"8XqXrXqX7X,X%X$X,X,X,X&X$X<XqXrXqX3X,XoX;.*.;.,.,.-.*.;.+X>X>X@X@X@X@X@XXX;.;.}.XXXXXX[.=.[.#X4XqXqX8X<X>X$X$X$X$X$X#X,X4XqXqX8X",
"7X8XqXqX8X4X3X3X4X4X7X4X,X,X<X7X8XqXqX4X$XoXoX@X#X@XoX$X3X8X8X8X4X3X4X3X,X%X>X,X,X3X3X3X&X&X,X4X8XqXqX4X,X$X$X#X#X#XOX%X4XqXqXqX",
"4X7X8X7X4X4X8XqX7X9XqXqX5X,X%X&X<X8XrX8X,X$X,X<X<X,X#X$X,X8X8XqX8X7X8X4X,X,X,X3X4X8XqXqX8X3X,X,X<X8XqX5X,X$X$X&X,X,X$X#X&X4X8XrX",
"3X<X<X,X,X4XqXrXqXqXrXeX8X,XOXoX%X4X4X4X3X3X8XqXqX8X3X,X<X3X4X4X8X5X3X<X,X3X5XqXqXrXyXrXwX3X$XOX$X<X4X3X,X,X3X5X8X4X,X$X$X&X<X4X",
",X,X$X$X,X4XqXrXqXqXqX8X4X&X#XOX%X,X&X,X,X4XqXrXqXqXqX8X3X,X%X,X<X<X%X%X,X4XqXrXqXqXqXqX4X>XOXOX$X,X%X&X,X4X8XrXqX8X3X&X$X$X$X&X",
"3X,X&X$X$X,X4X8X8X7X7X3X,X$X%X,X3X,X$X$X,X4X8XqXqXqXrX8X3X$X$X%X3X3X%X$X&X4X8XqX8X4X7X<X>X#X$X,X<X,X$X$X,X4XqXrXrXqX8X<X%X#X$X$X",
"qX8X4X,X$X$X,X3X4X4X3X,X$X$X<X8X8X4X3X,X&X,X3X8XqXqXqX4X,X$X%X3XqXqX3X&X$X&X3X4X4X4X3X&X#X$X,X5X8X5X3X,X&X,X3X8XqXqX8X<X&X$X&X,X",
"yXrXqX<X$XoX$X,X3X3X<X$XoX$X4XrXrXqX8X,X%X$X,X4X8XqX5X<X>X>X,X8XrXrX8X,X$X#X&X3X4X3X<X$XoX$X4XrXrXqX8X,X&X%X,X4X8XqX8X3X,X&X,X<X"
};
