/* XPM */
static char *b345c322c6b146cde5c1d176a913996ei6IIUSERUhSmPIMX[] = {
/* columns rows colors chars-per-pixel */
"64 64 115 2 ",
"   c #665645",
".  c #685947",
"X  c #6C5D4A",
"o  c #725F46",
"O  c #715E49",
"+  c #6E604E",
"@  c #776247",
"#  c #786347",
"$  c #73634D",
"%  c #7A664C",
"&  c #7D694C",
"*  c #6F6454",
"=  c #756652",
"-  c #786751",
";  c #766856",
":  c #7A6A54",
">  c #726758",
",  c #766A5A",
"<  c #7B6D5A",
"1  c #7D705D",
"2  c #796E60",
"3  c #7D7261",
"4  c #836C4D",
"5  c #886F4E",
"6  c #87704F",
"7  c #8B714F",
"8  c #91764F",
"9  c #836E52",
"0  c #857153",
"q  c #8B7453",
"w  c #8F7857",
"e  c #83735B",
"r  c #89775A",
"t  c #87785D",
"y  c #8C7A5C",
"u  c #917752",
"i  c #947A56",
"p  c #997E56",
"a  c #947C59",
"s  c #997F59",
"d  c #807462",
"f  c #8D7D61",
"g  c #917E60",
"h  c #9C8057",
"j  c #96815D",
"k  c #9C835B",
"l  c #A0855C",
"z  c #A1865D",
"x  c #A2865C",
"c  c #A3885F",
"v  c #A4885D",
"b  c #A48A5D",
"n  c #A98A5D",
"m  c #AB8D5F",
"M  c #AC8D5F",
"N  c #958362",
"B  c #9C8661",
"V  c #9E8964",
"C  c #9F8D68",
"Z  c #A28760",
"A  c #A18860",
"S  c #A38B63",
"D  c #A58B60",
"F  c #A88B60",
"G  c #AA8E61",
"H  c #AA8F63",
"J  c #AC8F61",
"K  c #AE8F60",
"L  c #A38E69",
"P  c #A79067",
"I  c #AB9063",
"U  c #AC9062",
"Y  c #AC9064",
"T  c #AC9165",
"R  c #A6916B",
"E  c #AB946C",
"W  c #AF996F",
"Q  c #B09161",
"!  c #B39463",
"~  c #B19364",
"^  c #B29464",
"/  c #B49665",
"(  c #B49767",
")  c #B79867",
"_  c #B89967",
"`  c #B29769",
"'  c #B79A68",
"]  c #B49A6C",
"[  c #B99A68",
"{  c #B99C69",
"}  c #BA9C69",
"|  c #B99C6B",
" . c #A69470",
".. c #AB9670",
"X. c #AE9972",
"o. c #B49D73",
"O. c #B99F71",
"+. c #BBA06F",
"@. c #B6A076",
"#. c #BBA375",
"$. c #B7A279",
"%. c #BBA67A",
"&. c #BEA97C",
"*. c #C0A473",
"=. c #C3A977",
"-. c #C0A778",
";. c #C2AB7D",
":. c #CAAF7C",
">. c #BEAB81",
",. c #C2AE81",
"<. c #C6B183",
"1. c #C9B484",
"2. c #CFB987",
"3. c #CCB789",
"4. c #D0BB8A",
/* pixels */
"O % 0 u q q q 5 4 4 8 p p a a a s w 9 4 q i i i q q i a i a a a a a a a q q q q q q q q 4 q q a i a a a k i 4 4 4 4 6 q u 0 % O ",
"% 9 i k s p p i q i h z k k k k Z k i q p k k k h h k k k k k k k k z k h h h h h s p i i p h k k k k S S h i 7 q i i s k i 9 % ",
"0 i z U G b b z z z n J G G G Y Y G k k b G G G G G G G Y Y I G G G Y Y Y G Y G G F b z z b G Y G G Y Y Y b k p k z b G G z i 0 ",
"u k U { ' / ^ Q J Q / ' ) / / ) [ / J J ^ [ ) ) ) ) / ) ' ' ) / / ' [ [ [ [ { [ ' / ^ Q U ^ [ [ ) ) [ { [ ~ m n J Q ^ / [ U k u ",
"q h G ' ^ ~ ^ Q M U / { [ / / / _ / J J / [ ) / ) ) / / ) ) ) / / ' [ [ [ ) [ ) / ! ! Q J Q ) { ) ) [ [ [ ^ J m Q Q Q ^ ) G h q ",
"6 i b / ^ G z p i s z D z k k k z k p p k z z z z z z z z z z z z z c c z k k k k k z k s k z S z z c c c k p i p z G ^ / b p 6 ",
"4 i z ^ / z q % % 9 0 q 0 9 0 q q 0 4 4 4 q q q q q q q q 0 q 0 9 0 q q q 0 4 9 q q q 0 4 4 0 q q q q q q 4 & % % q z / ^ b i 4 ",
"4 q k M M i #   X $ = = $ $ = = ; = $ $ = = = = = = : ; = = ; = $ $ $ = = $ $ $ = ; - $ $ $ = = = = ; ; ; = $ .   % p U M k q 4 ",
"4 q p b z q % X = ; ; ; < < < < < < < < < < < < ; ; < < < < < < < < ; ; < < ; ; ; < < < < < < < < < < 1 1 1 < = X % i b n p q & ",
"4 i k n b i 4 = < < ; ; < 1 < < < 3 3 3 3 3 1 < , , < < < < < 1 1 < < < < 1 1 < < < < 3 3 3 1 < < < d d < < 3 < $ & i b n k q 4 ",
"u h b ^ / k 0 $ < < ; = , , > > , , < < < , , , < < , > > = ; , , > > ; , < 1 < ; ; , < 3 < , ; > , 3 < = = < < $ 4 p U ~ b i 4 ",
"i k I [ [ b q = < < ; = = = ; ; ; < < < < < : ; ; ; ; : ; ; ; : ; ; < < < < ; ; ; < < e e e ; = ; < 1 ; X + < < $ 6 k / ' G s q ",
"q k G ) / z q = < 1 < ; $ % e t e e e e e 0 q 9 : = : 0 e e e e 0 q y t r : $ : e r q r f t 9 4 e e : = = ; < < & 7 z / ) G p q ",
"q h G / Q k 4 = < 3 < ; % q B R V V L L B k S k r r j L R R R L L P E R V a 0 q B E L S S B k V R V q & ; < 1 e & 7 k Q / G p q ",
"i k G ^ Q h 4 $ ; < ; : 4 h E O.] o.%.%.] ^ { ] V V E $.%.&.%.%.&.%.$.o.o.R B B W %.%.O.Y Y ] %.&.X.B 0 : ; 1 < % 4 k Q / G p q ",
"a k G ^ ! k 4 $ ; < > : q D O.;.=.;.1.<.-.*.=.#.E E o.,.1.3.1.<.3.<.;.%.&.o.E W %.1.<.#.{ O.;.1.1.#.R r 9 ; 1 < $ 9 z / _ G p q ",
"a k U / / k 0 = < 1 , 9 q D O.;.&.&.=.&.%.#.#.] L L W #.;.,.,.;.;.#.#.{ { ` L E %.;.#.{ O.$.%.%.#.` L t < , 1 < $ q b { [ G h q ",
"i h D Q Q k 9 = < 1 < < q S o.;.&.#.#.#.&.&.#.] L V E O.#.%.%.%.#.#.#.{ ' G S R $.%.O.O.$.%.@.] ' G k e < , 1 < = 0 k / ^ b p q ",
"q i k m m p & + < < , ; 9 S @.;.#.O.#.%.&.&.;.O.R L W O.O.#.#.%.%.#.%.O.] L B L @.;.#.%.&.%.o./ { Y k e : ; 1 < $ 4 i n n k q 4 ",
"0 i k n m p % X ; < ; : e V o.=.+.{ #.&.&.>.,.$.E L ..O.O.{ { #.%.&.&.%.O.R V R @.;.&.%.%.#.' ' #.` B 9 = > < < $ % u z n k q 4 ",
"q p z U Q p & X = , , 1 t L ] #.O.O.$.&.&.&.,.%.R L W O.@.O.` ' #.,.>.&.#.W L R #.;.&.#.O.] { #.=.o.L 0 : = < ; $ & i m U c i q ",
"q h G / / k 9 $ = , , e t S ` #.%.&.%.%.#.&.<.&...L ` O.#.O.^ / #.;.,.;.;.#...X.%.;.;.#.{ { #.,.1.%.R e < ; < ; $ 4 k ^ ^ G k i ",
"w h G / / z 0 $ ; < < 1 e V ` ;.<.<.;.#.#.;.3.,.o.E ' #.#.#.{ { #.&.;.,.;.%.o.@.&.;.;.%.#.#.%.<.4.&.L r e < 1 ; $ 4 k / ^ G k a ",
"r k G ) [ c q = < 3 < ; & a E ;.,.&.@.] ] #.,.$.L B E { O.O.O.` Y ` #.%.$...L R @.=.%.o.O.o.$.&.<.o.j : < 3 3 < $ 0 z ) ^ G k s ",
"y B G _ [ c q $ < e < % @ 0 L o.o...E R R X.$.R r 0 N R R R E L k S W o.E N 0 r E %.X...R E X.o.o.B q $ = < 3 < $ 4 z / ^ G k a ",
"y B G ) _ z 0 = < e < % @ q R @...S S S L X.o.L 0 : N R L L L S B S ..X.R r % 0 R o.E L R E E W E k 4 @ = , 1 < $ 0 z / ^ G k a ",
"a k G / / k 0 = < e < < 9 k o.&.o.E D G W $.&.X.a r L o.] ` W W ] o.%.$.X.B q a X.@.Y G X.o.] ` O.L q # = , 1 < = 0 z / ^ D k a ",
"i k G / / k q ; < < , < r Y #.<.&.O.` ` { #.;.@.L V X.#.#.+.' O.%.,.;.&.%.E V C X.#.` ] $.$.' [ -.O.B : ; , 1 < = q z / / G k a ",
"i k G / / z q = < < > < y E #.<.;.%.#.{ ` ] #.@.E R o.#.#.#.{ O.#.&.&.&.&.o.R L ] #.#.%.&.#.] { =.@.L e : , < < = q z ) ' Y k a ",
"a k G / / z q = < < > 1 f ..#.;.%.%.&.%.{ ' #.O.E R X.#.#.#.#.#.%.&.&.&.&.@...E ] #.&.,.&.#.{ #.;.%.R t 1 , 1 < = 0 z ) ' Y k a ",
"a k G / ! k 0 = < < , e N E @.#.{ { %.&.%.#.#.^ S B R o.%.&.#.#.%.&.&.%.%.o.R E O.&.&.&.#.#.#.&.3.&.R t e < 3 1 ; 0 z / / D h q ",
"a k Y ' / k 0 = 1 1 < e f R @.#.' ` O.%.&.&.%.W k h L o.%.&.%.%.%.%.#.#.#.W L R o.;.&.%.#.#.%.,.1.%.L e 1 1 3 1 ; 0 z / / D h q ",
"a B Y { [ c q ; 1 1 ; 9 r R @.;.#.] ' ] #.&.;.o.k h E %.%.%.%.%.%.#.#.O.#.X.V L o.;.&.%.&.%.%.&.,.o.B : : , 3 < ; 0 z ) ' Y k a ",
"a Z Y { { c q = < < : 9 r R $.;.;.#.] ` ] %.<.%.L B ] #.#.#.%.%.O.] { #.#.o.L L @.;.&.%.%.%.%.&.;.O.V 9 - > < < = q z ) ' Y k a ",
"a k G / ) z q $ : ; ; e g E $.;.%.#.#.O.] #.<.>.X.R o.#.O.#.%.#.' ` O.%.;.@.R E #.;.;.&.#.#.#.=.3.&.Y q & $ < < = q z ) ' G h u ",
"a k b ~ / z q $ : ; < e y L O.=.#.#.&.%.{ #.;.%.E L X.#.O.{ O.] ^ ` #.&.&.o.L L #.;.&.#.{ { O.;.3.&.E q 4 - < < = q z ) ) G h q ",
"q h b ^ / z q = ; 1 3 e e k ] =.#.#.$.$.#.#.#.W B B E @.#.{ ' ` W o.%.&.%.E N V o.;.@.] ` { #.>.<.@.S q e < 1 < = q z / / G k y ",
"q h F / / z q = < 3 1 ; # q E %.#.o.W E W ` ] S r 0 B X.o.] G D R X.%.#.X.N 0 r E $.E L G W X.o.@.L w : e d 3 < = 0 z ) ) G k r ",
"a k G / ) z 0 = < 1 : # o 0 S @.o.E S h h S W V : $ y  .X.W L B V ..@.O.R r % e L o.L B S L L L E B 0 $ < d d < = 0 z ) ' G a q ",
"s Z G / / z 9 $ < < : % % a ..%.@.E S h k R $.R r : N X.o.o.E R L W @.o.E j 0 r R o.E R ....E E E B q : 1 e d < : q z ) ' G s q ",
"k z G ^ / z q = < < ; : e R %.<.#.` ^ W o.%.<.%.V k E %.&.&.$.o.O.@.%.%.@.E V L o.&.@.$.&.&.$.@.%.W V t e 3 3 < : i b ) ) J k a ",
"a k S Q Q k 0 = < < , 1 g o.;.;.+.' { =.,.1.3.&.W E #.<.<.<.,.&.#.#.%.%.#.o.E E o.;.&.,.<.<.;.;.,.%.W g e , < < : q z ^ ^ G k a ",
"q j S Q J p 0 - < < ; 9 a G { { ~ ^ #.;.,.,.;.O.L L o.;.<.,.,.#.O.O.#.#.{ Y Z S W #.$.>.,.;.#.#.;.#.E y < > < < - 0 h J J z i q ",
"0 a D Q m i 4 - 1 1 ; 9 q S W ] ^ ] %.>.%.#.%.o.V V E #.%.;.&.#.{ ' O.#.{ Y k k Y O.@.%.>.&.O.#.;.%.E y ; > < < $ 4 i n n p q 4 ",
"9 i c U m i 4 = 1 3 , < r L o.#.#.#.&.%.O.#.&.$.L B Y { O.%.&.%.O.' ] O.#.] V V W #.%.&.>.&.@.#.1.;.X.f < > < < $ & i n n k 7 4 ",
"q a b Q U p 4 = 1 3 , < e L o.,.;.%.%.O.] { &.$.R V Y ' ' #.%.%.#.O.] { #.o.L L O.=.;.&.%.#.@.%.1.&.X.f 1 , 1 < $ 4 p J J z i q ",
"a k G / / k 0 = 1 d 3 1 t L @.,.&.#.#.{ { @.%.o.R L W @.O.o.#.%.%.#.#.{ { W L R @.;.,.&.O.] O.&.,.%.R t < , 3 1 = 9 k / ^ S k r ",
"a z G / ) z q ; 1 d < e t L @.;.%.#.+.#.#.%.%.O.R R o.&.%.#.#.#.&.%.#.{ ' Y L W &.1.,.%.{ O.&.,.<.O.S 0 ; , 3 1 = q z _ _ Y B y ",
"a k G ^ / k q = < 1 ; 9 r E #.:.-.#.#.-.;.;.;.O.R R o.;.;.;.=.#.=.-.#.#.+.` L o.<.2.;.#.#.;.<.3.3.O.k 4 : , 3 < $ 9 k / ) G h q ",
"a k S ^ Q k 0 = < < ; : e B W O.` W ] o.o.o.O.E N N L O.#.#.O.] ] ] ] W W S k S @.&.] W o.$.%.&.&.R u # = , 1 < $ 4 k / ) G p 5 ",
"a k G ~ ! k 0 = < 1 < ; : q B L k k S S k k S k q 0 a S R E L S V S L V k i 0 r V R B B V R R R R j 4 @ = < 3 < $ 4 k / ) S i 4 ",
"i k G / / k q = 1 1 < ; - : e r e e e e 9 9 q 0 : % : r t y r e r t t r e < : ; e e 0 e t t e e t e : $ $ ; < < $ 0 k / ' G p 0 ",
"i k G ) / z q : 1 < = $ ; 1 e e < ; < 1 < < e e < < < < 1 1 < 1 e e e e e 1 < < < < 1 e e e < < e e 1 = X @ < < = q z [ [ G h q ",
"0 i b ^ Q p 4 $ < < = $ < 3 3 < , , , < < < < 1 3 1 < , > > , , < < , , 2 3 3 < , , < 3 1 < , > , 3 d < $ $ < < = 9 k ! ^ b p q ",
"% q k m n u # X < 3 , ; 1 3 3 3 3 3 3 1 < < 1 3 1 < , , , , < < < , , , < 1 < < < < 1 3 3 1 , , , < 3 1 ; ; 3 < + # u n J k q 4 ",
"$ 0 p n n u @   $ ; ; , < < < < 1 1 < < , < < < ; ; ; ; ; ; < < ; = = ; ; ; ; ; ; < < < < < ; ; ; ; < < , < < ; . @ q n m k q & ",
"4 q k M J p &     X $ = = = = - < : $ + * > ; = = = : : $ = = = $ $ $ = = = = = = = $ $ $ $ $ $ $ = = = = = $ X . & p Q ~ c i 4 ",
"q p b ~ ~ b i & @ % 9 q q 0 q q i q 4 & 9 e 0 q q q i i q q q q q q q q q q q q q q 0 4 & 4 0 q q q q q q 0 4 % & i c ^ ^ b p q ",
"q p b ^ ~ G b p q i k b z k z b b z p p h k z z c D D D b c c z z z z c c D c D S D z p p p z b z k z c D k i i p c m U U z p q ",
"q h G ' / Q ! J b S / { / / ) [ [ ^ J M Q / / _ [ [ [ [ [ _ ) ) ) / / / _ [ [ [ { [ / J m J / [ / / / [ { ^ b z U / Q U ^ b p q ",
"u k Y { ' / Q J b G / { ' / / ) [ / J G Q / ) ' ' [ ' ) / / ) ) ) / ^ / / _ ) ' [ ) ^ J G J ~ / / / / ) [ ~ z z U ) / ) { U h q ",
"0 i b ~ G b z k p k D Y G G b G Y G z k c G G G G G G S b b S G G G G S G G G G G G b k k z b G G I G I U b p p z G G G Y z i 4 ",
"% 0 p z k i i q q u p h h s p h z k i q p h h h h h h s s s p h k z k k B B k z z k j i q i h z z B B B z p u q i p p p h i 9 % ",
"O & q p q 6 4 4 4 4 q q q q q i a a 0 9 q q q q q q q q q q q q a a s a y y a a s a q 0 4 6 i p s a y a s u 5 4 6 q q q q 4 % @ "
};
