/* XPM */
static char *b50f48efbdd34bfbd1c4579c3da5d1ffh8XaZjVdD2xzvQ0O[] = {
/* columns rows colors chars-per-pixel */
"64 64 229 2 ",
"   c #010002",
".  c #03040B",
"X  c #08070A",
"o  c #0A0A0E",
"O  c #160A09",
"+  c #010712",
"@  c #030A13",
"#  c #0C0E13",
"$  c #100E14",
"%  c #0E1116",
"&  c #0D1218",
"*  c #121215",
"=  c #1B1515",
"-  c #14151A",
";  c #181518",
":  c #16191C",
">  c #1B1A1C",
",  c #240B05",
"<  c #2E130C",
"1  c #261B1A",
"2  c #381E15",
"3  c #2F231E",
"4  c #392116",
"5  c #33221C",
"6  c #3B241B",
"7  c #0D1B29",
"8  c #151A26",
"9  c #1D1E21",
"0  c #231F20",
"q  c #1D2327",
"w  c #062038",
"e  c #172535",
"r  c #232224",
"t  c #2D2421",
"y  c #23252B",
"u  c #28282B",
"i  c #2B2A2C",
"p  c #382A24",
"a  c #322C2B",
"s  c #38312D",
"d  c #2B2E32",
"f  c #222B38",
"g  c #332F35",
"h  c #2C3137",
"j  c #383736",
"k  c #452719",
"l  c #542C1C",
"z  c #4F301E",
"x  c #65361E",
"c  c #452D22",
"v  c #473428",
"b  c #543423",
"n  c #5A3523",
"m  c #583929",
"M  c #443635",
"N  c #443A33",
"B  c #4B3C34",
"V  c #433D3B",
"C  c #513E32",
"Z  c #683B26",
"A  c #633D2A",
"S  c #743E25",
"D  c #3F403D",
"F  c #5B402A",
"G  c #45413E",
"H  c #4C4239",
"J  c #544233",
"K  c #5A4638",
"L  c #64432C",
"P  c #6B432A",
"I  c #76432B",
"U  c #6C4631",
"Y  c #654937",
"T  c #6C4B32",
"R  c #754B33",
"E  c #6F533D",
"W  c #785339",
"Q  c #152C41",
"!  c #293544",
"~  c #393B41",
"^  c #464544",
"/  c #4B4844",
"(  c #524A45",
")  c #564C45",
"_  c #4E504D",
"`  c #54514C",
"'  c #5A544E",
"]  c #5A5651",
"[  c #5C5853",
"{  c #665647",
"}  c #795B43",
"|  c #725B4B",
" . c #635A52",
".. c #635F5A",
"X. c #705C50",
"o. c #5E615B",
"O. c #78624C",
"+. c #66625A",
"@. c #6B655C",
"#. c #736557",
"$. c #5D6260",
"%. c #6B6B65",
"&. c #746D63",
"*. c #7A7368",
"=. c #7D7B74",
"-. c #883F1F",
";. c #864829",
":. c #9B532D",
">. c #854E33",
",. c #875336",
"<. c #8B5D3D",
"1. c #955737",
"2. c #A35A35",
"3. c #AB5931",
"4. c #AB5B34",
"5. c #89603E",
"6. c #9A613E",
"7. c #A9633C",
"8. c #B9663B",
"9. c #C2673A",
"0. c #865C41",
"q. c #886447",
"w. c #8B6A4B",
"e. c #976846",
"r. c #98724D",
"t. c #856C52",
"y. c #906F50",
"u. c #8B745A",
"i. c #987656",
"p. c #AA6C45",
"a. c #B56C42",
"s. c #A8724C",
"d. c #B6744A",
"f. c #A77B54",
"g. c #B87B52",
"h. c #847D72",
"j. c #C66F41",
"k. c #C77748",
"l. c #D77C49",
"z. c #E07F49",
"x. c #7F847B",
"c. c #A9835A",
"v. c #B9865A",
"b. c #8C8275",
"n. c #83827A",
"m. c #888378",
"M. c #908477",
"N. c #9B8A73",
"B. c #928A7D",
"V. c #A88B65",
"C. c #B68D61",
"Z. c #B79367",
"A. c #BB9D73",
"S. c #BFA47F",
"D. c #C88759",
"F. c #D98A57",
"G. c #D88C58",
"H. c #EC8B51",
"J. c #E88D56",
"K. c #E7935C",
"L. c #C58E61",
"P. c #C79667",
"I. c #D59563",
"U. c #DC9965",
"Y. c #E89B64",
"T. c #C9A374",
"R. c #D5A673",
"E. c #E3A36D",
"W. c #EBA26B",
"Q. c #F9A467",
"!. c #F3A96E",
"~. c #E3AA74",
"^. c #EBAB73",
"/. c #F3AC73",
"(. c #EAB57A",
"). c #F8B67A",
"_. c #FFC07E",
"`. c #948D81",
"'. c #969184",
"]. c #9B9385",
"[. c #939489",
"{. c #99968A",
"}. c #9D9A8D",
"|. c #A79B89",
" X c #A29B8C",
".X c #A89F90",
"XX c #ABA393",
"oX c #A9A89A",
"OX c #B7AA95",
"+X c #B3AA98",
"@X c #B4AC9C",
"#X c #BCB5A3",
"$X c #BCB8A7",
"%X c #D2B182",
"&X c #E1BB84",
"*X c #FABC80",
"=X c #C4BBA7",
"-X c #FDC384",
";X c #FBC889",
":X c #FFD28D",
">X c #FFD692",
",X c #CBC2AE",
"<X c #CBC5B2",
"1X c #CBC6B3",
"2X c #D4CBB6",
"3X c #D6CBB6",
"4X c #D6CEB8",
"5X c #D7D0BC",
"6X c #DCD2BC",
"7X c #E1D5BD",
"8X c #DBD9C4",
"9X c #E2D7C0",
"0X c #E5DAC3",
"qX c #EBDFC6",
"wX c #EDE0C7",
"eX c #E7E5CC",
"rX c #EEE1C8",
"tX c #F1E4CA",
"yX c #F2E6CB",
"uX c #F5E9CE",
"iX c #F6E9CE",
"pX c #F8EBCF",
"aX c #F6ECD2",
"sX c #FAECD2",
"dX c #FEF2D6",
"fX c #FEF5D9",
"gX c #FFFADD",
"hX c #FFFEE3",
"jX c #FFFFEA",
/* pixels */
"rXrXrXrXrXrXrXrXrXrXwXrXtXtXrXqX0XqXtXtXqX0XqXtXtXtXqXqXqXrXrXrXrXrXrXrXrXrXrXrXrXrXrXrXwXwXrXrXrXrXrXrXrXrXrXrXrXrXrXrXrXrXrXrX",
"rXrXrXrXrXrXrXrXrXrXrXrXtXtXrXqXqXwXrXrXwXqXqXrXtXrXwXqXwXrXrXrXrXrXrXrXrXrXrXrXrXrXwXrXrXrXrXwXrXrXrXrXrXrXrXrXrXrXrXrXrXrXrXrX",
"rXrXrXrXrXrXrXrXrXrXrXwXwXwXqXwXtXrXqXqXrXrXqXqXwXrXwXwXrXrXrXrXrXrXrXrXrXrXrXrXrXrXwXrXtXtXrXwXrXrXrXrXrXrXrXrXrXrXrXrXrXrXrXrX",
"rXrXrXrXrXrXrXrXwXrXrXrXrXwXqXrXtXtXwXqXtXtXwXqXrXrXrXrXrXrXrXrXrXrXtXrXrXrXrXrXwXwXqXrXtXtXrXqXwXrXrXrXrXrXrXrXrXrXrXrXrXrXrXrX",
"rXrXwXwXrXrXrXwXwXrXtXtXtXrXwXqXrXtXtXtXrXrXtXtXtXtXrXwXrXtXtXtXrXrXtXtXtXrXrXwXwXqXwXrXrXrXrXwXrXrXrXrXrXrXrXrXrXrXrXrXrXrXrXrX",
"rXrXwXwXrXrXrXwXqXwXtXtXtXtXrXwXwXrXtXtXwXrXtXpXsXaXtXtXtXiXaXaXiXiXaXaXiXtXtXrXrXrXrXrXwXrXrXrXrXrXrXrXrXrXrXrXrXrXrXrXrXrXrXrX",
"rXrXrXrXrXrXrXwXwXwXwXrXwXrXtXtXrXrXrXrXqXwXtXsXfXfXsXiXsXdXfXfXfXfXfXfXfXdXiXrXtXtXrXwXwXrXrXrXrXrXrXrXrXrXrXrXrXrXrXrXrXrXrXrX",
"rXrXrXrXwXrXrXrXwXqXqXqXqXrXtXtXtXrXqXrXiXtX0X=X+X@X3X0X3X=X@X+X@X#X@X@X@X,X0XsXsXiXtXrXrXrXrXrXrXrXrXrXrXrXrXrXrXrXrXrXrXrXrXrX",
"rXrXrXwXwXrXtXtXwXqXqXwXtXtXrXrXtXrX0XtXgXsX6XB./ ' XX<X.X&.[ `  . .[ ] ` B.<XhXgXdXpXrXrXwXrXrXrXrXrXrXrXrXrXrXrXrXrXrXrXrXrXrX",
"wXwXrXrXqXrXtXtXrXwXqXrXtXtXwXqXrXtXrXiXfX4X Xj . * +.h.' 9 @   o $ o X . j h.=X=X4XwXsXtXqXwXrXrXrXrXrXrXrXrXrXrXrXrXrXrXrXrXrX",
"qXwXrXrXwXwXrXtXtXtXwXrXtXtXrXqXqXrXsXaXtXXX%.r - q ~ ^ a * o . o o o o o r j  .@.XX7XgXiXqXqXrXrXrXtXtXrXwXrXrXrXrXrXrXrXrXrXrX",
"rXrXrXwXwXwXwXrXtXtXwXwXrXtXrXqXqXtXdX4X.X` u * u d y : % o o * - - * # # o . o # ` ].0XtXaXtXqXwXrXtXtXrXrXrXrXrXrXrXrXrXrXrXrX",
"tXtXrXwXwXrXwXrXrXrXwXwXwXwXqXwXtXiXdX@X@.> ; 9 d j d q : * = 1 u u r > - # # o   i ] @XqXgXiXqXqXrXrXrXrXrXrXrXrXrXrXrXrXrXrXrX",
"tXtXrXqXwXrXrXrXrXwXqXwXwXwXqXtXpXiXtX`.g   . r i j h i y r r i h h i > - * - o   . r m.4XjXsXqXwXrXrXrXrXrXrXrXrXrXrXrXrXrXrXrX",
"rXrXwXwXwXrXrXrXrXwXqXwXtXtXqXtXsXiXrXB.j   o 9 r d h h d u d d h u 0 = * - : *   o r m.3XgXaXrXwXrXrXrXrXrXrXrXrXrXrXrXrXrXrXrX",
"rXwXwXwXrXrXrXwXwXrXwXrXtXtXrXtXsX3XXX' i . % : : r r i d d u y y > = * * * - * o # : ] ].7XtXsXtXqXrXrXrXrXrXrXrXrXrXrXrXrXrXrX",
"rXwXqXrXtXtXrXqXqXrXtXtXrXtXtXtXaX@X#.1 > & - : : : : 9 y q : * - - ; * * % # % * * X a ..#X0XgXiXqXwXrXrXrXrXrXrXrXrXrXrXrXrXrX",
"rXrXwXrXtXtXwXqXqXrXtXtXwXrXiXiXaX].s   o : : : - % @ > v m b 4 = + @ ; 5 6 1 > 9 #   o g ].7XhXaXqXwXrXrXrXrXrXrXrXrXrXrXrXrXrX",
"rXrXwXwXwXwXwXqXqXrXtXtXwXrXiXiXaX].j   o : : : - # + r U 7.2.Z 1 . . = z Z b 5 r @   o s N.7XhXaXqXwXrXrXrXrXrXrXrXrXrXrXrXrXrX",
"wXrXrXrXrXwXwXwXqXrXtXtXwXrXiXiXiX X/   o * - - * * - m 1.l.l.2.A 1 : m 1.8.1.b t +   > H |.7XhXiXqXwXrXrXrXrXrXrXrXrXrXrXrXrXrX",
"qXrXtXtXtXtXrXqXwXwXwXwXqXrXiXiXiXXX] # # # # % & 1 6 I 6.k.a.7.e.W K ,.k.H.a.L 5 + . i ] OX0XgXiXqXwXrXrXrXrXrXrXrXrXrXrXrXrXrX",
"qXrXtXtXtXtXrXqXqXwXwXwXwXrXtXtXaX,X{.( u o * % @ p R p.e.0.R 1.g.G.v.D.!.Y.d.n 1 . # _ `.7XrXaXrXqXwXrXrXrXrXrXrXrXrXrXrXrXrXrX",
"qXwXrXrXrXrXwXqXqXwXtXtXrXqXqXrXaXqX4Xm.V O = - + a 0.s.0.F v R g.W.E.^./.L.q.4 o . % @.=XfXrX0XqXqXqXwXrXrXrXrXrXrXrXrXrXrXrXrX",
"wXwXrXrXrXqXqXwXwXrXtXtXrXqX0XrXsXdXfXXX( < n v & i w.L.c.O.Y Y 0.D.!.).T.u.} k O % i B.0XjXdXrXiXiXtXqXwXrXrXrXrXrXrXrXrXrXrXrX",
"qXrXtXtXrXqXqXwXtXtXrXwXwXqXqXtXsXaXrX`.N 2 ;.>.1 q O.T.(.R.f.E B W G.W.f.O.e.I 4 r V ].6XjXhXhXhXfXiXqXqXrXrXrXrXrXrXrXrXrXrXrX",
"qXrXtXtXwXqXwXtXtXtXwXqXwXwXqXtXsXtX0X'./ n 8.a.A B t.%X>X:X^.q.B E I.^.u.O.g.e.v G m.3X9XrX6X4X5X9XrXiXtXrXrXwXrXrXrXrXrXrXrXrX",
"qXwXrXwXqXwXrXtXtXtXwXwXtXtXwXtXiXtXwXXX+.Y p.j.1.0.i.%X;X-XW.f.} i.(.-XV.u.D.e.6 _ #XhXrX$X[.=.n.@X9XfXaXtXrXqXwXrXrXrXrXrXrXrX",
"wXqXqXqXwXrXtXtXtXrXwXwXtXtXrXwXrXtXaX3XoX*.| >.2.j.D.~.).*X^.U.L.P.(.(.L.f.v.r.) n.eXjX<X*.' V G *.+XqXrXiXrXqXwXrXrXrXrXrXrXrX",
"qXqXqXwXtXtXrXwXrXwXqXqXwXrXrXqXqXtXdXaXeX[.^ 4 I j.l.Y.^.).).(.E.I.I.D.D.d.p.u.b.$XaX0X}.{ { Y J X.h.#X6XiXtXwXrXrXrXrXrXrXrXrX",
"rXwXqXrXtXtXwXqXqXwXwXrXwXwXwXqXqXiXfXaX8Xx.j < n 2.4.l.Y.*X;X-X).Y.D.j.l.7.P  .'.,X<X.Xu.} s.v.f.w.) *.#XsXtXtXrXrXrXrXrXrXrXrX",
"tXtXrXqXwXwXwXqXqXwXtXtXtXrXqXqXrXsXgX6X}.{ m l n S ;.a.U.-X;X-X(.U.I.F.l.:.k h %.[.`.M.i.v.E.).-XC.K ' +XsXiXtXrXrXrXrXrXrXrXrX",
"tXtXrXqXqXwXwXwXqXrXtXtXtXrXqXwXiX0X3X].#.W a.7.R c 2 m y.R.^.).!.Y.U.D.p.I c a / ' / } s.K.W.*X:XI.b j  XaXiXiXtXwXrXrXrXrXwXqX",
"rXrXrXwXwXwXwXrXwXrXrXrXrXrXwXrXtX,X'.#.t.v.W.U.e.v * - N r.G.Q.Q.Y.I.i.| K U P A v p Y p.l.d.D.Q.k.z D  XaXiXiXtXwXrXrXrXwXqXqX",
"wXrXrXrXrXrXrXrXrXrXrXwXwXrXtXtXtXXX' J f.).-X!.s.v r q j W 1.8.j.d.e.' ! ^ e.8.:.x 6 b 1.8.3.2.8.1.Y *.#XaXtXtXrXrXrXrXrXwXqXqX",
"rXrXrXrXrXrXrXrXrXrXrXrXwXtXiXtXrX X/ J v._.).G.<.v H { w.q.U n I T K ~ Q ^ e.F.F.e.b k I 4.9.4.-.U #.oX4XsXtXrXrXrXrXrXrXrXwXqX",
"rXrXrXrXrXrXrXrXrXrXrXwXqXtXsXiXrX}.G m v.!.G.6.T E i.R.^.v.} a t 9 y e w G e.H.Q.G.e.W 1.8.8.:.A #.XXwXtXiXrXrXrXrXrXrXrXrXrXrX",
"rXrXrXrXrXrXrXrXrXrXrXwXqXtXaXiXrX X( b a.k.1.A L y.P.-X-X~.C.{ s 7 e f e B 1.z.J.U.P.L.G.j.:.R X.}.3XdXiXrXrXwXrXrXrXrXrXrXrXrX",
"rXrXrXrXrXrXrXrXrXrXrXwXqXtXaXiXrX X` b a.k.<.E 0.D./.:X>X-X^.w.V 7 ! ! e p Z 4.j.K.!.!.K.p.W #.}.8XaXfXiXqXwXrXrXrXrXrXrXrXrXrX",
"rXrXrXrXrXrXrXrXrXrXrXwXqXtXaXiXrX}./ m g.!.P.v.D.G.W.-X;X).Y.0.B e ! ! u 1 2 S 4.H.J.F.7.W | '.<XsXiXtXrXwXwXrXrXrXrXrXrXrXrXrX",
"rXrXrXrXrXrXrXrXrXrXrXwXqXtXaXiXrX}.^ b d././.W.J.F.G.Y./.I.p.L M f h y > t ^ | <.2.2.,.P #.'.8XaXfXtX0XqXrXrXrXrXrXrXrXrXrXrXrX",
"rXrXrXrXwXwXrXrXrXrXrXwXqXtXsXaXtX}.^ k 2.H.K.J.l.k.l.F.F.p.U a g d y : o j m. XO.c k v K B.=XsXaXiXqX0XqXrXrXrXrXrXrXrXrXrXrXrX",
"rXrXrXrXwXwXrXrXrXrXrXrXwXtXiXiXiX#Xh.E >.4.9.9.4.1.,.>.,.A t 8 u i 9 * . ` @X5X}.o._ +.n.,XiXgXiX0XqXqXwXrXrXrXrXrXrXrXrXrXrXrX",
"rXrXrXrXrXrXrXrXrXrXrXrXrXrXtXtXiX6X=XM.| I :.3.;.m v p c p r 9 r y 8 8 # `  X0X6X<X#X#X,X9XtXiXtXqXqXwXrXrXrXrXrXrXrXrXrXrXrXrX",
"rXrXrXrXrXrXrXrXrXrXrXrXrXwXqXrXiXdXgX<Xn.K I ;.R K N s N B J J J H / ) K #.*.@X0XjXhXfXdXiXrXqXwXrXrXrXrXrXrXrXrXrXrXrXrXrXrXrX",
"rXrXrXrXrXrXrXrXrXrXrXrXrXwXqXrXtXdXhX0XoX@.Y P 5.y.w.q.q.w.w.w.q.w.u.V.V.u.{ &.+XiXaXsXiXtXwXqXwXrXrXrXrXrXrXrXrXrXrXrXrXrXrXrX",
"rXrXrXrXrXrXrXrXrXrXrXrXrXrXtXrXrXrXiX,X X&.#.u.c.P.P.C.c.r.e.e.e.c.Z.R.&XZ.} K @.+X9XfXiXqXqXwXrXrXrXrXrXrXrXrXrXwXwXwXrXrXrXrX",
"rXrXrXrXrXrXrXrXrXrXrXrXwXtXiXtXrX6X<XN.O.| B.XXA.Z.T.C.r.T F L W i.C.R.R.A.V.O.( =.4XhXiX0XqXrXrXrXrXrXrXrXrXrXrXwXqXqXwXrXrXrX",
"rXrXrXrXrXrXrXrXrXrXrXwXqXtXpXsXsX=Xm.K L q.|.=XS.C.C.y.| N s v C } i.C.A.T.T.t.s ] #XhXsXrXwXqXwXrXrXrXrXrXrXrXrXwXqXqXwXrXrXrX",
"rXrXrXrXrXrXrXrXrXrXrXwXqXrXpXdXgX#X[ v W c.A.%XA.f.e.T K G ^ H V K W i.Z.A.Z.O.N  .+XfXfXsXrX0XqXrXrXrXrXrXrXrXrXrXwXwXwXrXrXrX",
"rXrXrXrXrXrXrXrXrXrXwXrXrXtXiXrX0X`.j 2 W v.c.c.f.<.F J @.`.{.[.n. .K T w.c.c.w.T ) %.oX6XfXiXrXwXqXwXrXrXrXrXrXrXrXrXrXrXrXrXrX",
"rXrXrXrXrXrXrXrXrXwXqXrXiXiXiX3X#X&.N k T e.r.e.<.L v  .].6XeX8X<XB.) k L q.f.r.q.J a $.@XfXfXsXrX0XqXrXrXrXrXrXrXrXrXrXrXrXrXrX",
"rXrXrXrXrXrXrXrXrXwXqXtXpXsXpX@X%.a c b A U U L b J [ }.6XjXjXjXjX,Xm.H v L 5.r.e.m O r @.,X0XsXrXqXwXrXrXrXrXrXrXrXrXrXrXrXrXrX",
"rXrXrXrXrXrXrXrXrXwXqXtXaXsXdX XG X 4 Z A A b c p ' B.6XtXdXaXaXgX0X=X*.) b R 5.<.U k p K B.=XwXrXtXrXrXrXrXrXrXrXrXrXrXrXrXrXrX",
"rXrXrXrXrXrXrXrXrXwXqXrXiXsXdX+X` O 2 k k 4 4 N ` }.4XgXdXtX0X0XiXdXfX@X@.3 6 k b n l 2 , N h.3XwXdXtXqXwXrXrXrXrXrXrXrXrXrXrXrX",
"rXrXrXrXrXrXrXrXrXrXwXrXtXiXsX,X`.H 6 , O O = ' '.8XrXsXiXwXqXqXwXsXhX,X*.=     O < 2 ,   1 [ $XwXgXiXqXqXrXrXrXrXrXrXrXrXrXrXrX",
"rXrXrXrXrXrXrXrXrXrXrXrXwXrXiXqX6X X+.p t j / ].6XhXdXtXwXqXrXwX0XiXhX0X X^ i > i V K B 1 N &.=XwXfXtXqXqXrXrXrXrXrXrXrXrXrXrXrX",
"rXrXrXrXrXrXrXrXrXrXrXrXwXrXrXtXiX,X X&.&.h.`.=XqXdXiXqXqXwXtXtXqXtXdX0X#Xm.=.*.*.h.b.h.&.m.XX5XrXsXtXqXwXrXrXrXrXrXrXrXrXrXrXrX",
"rXrXrXrXrXrXrXrXrXrXrXrXrXwXqXiXdXpX9X<X<X5X0XtXiXiXwXqXqXrXtXtXrXwXtXqX9X6X6X5X5X4X4X4X3X6X0XtXtXrXrXrXrXrXrXrXrXrXrXrXrXrXrXrX",
"rXrXrXrXrXrXrXrXrXrXrXrXrXrXwXrXtXtXtXtXtXiXiXtXtXrXtXrXrXrXrXwXwXqXwXrXrXtXtXtXtXtXtXrXtXtXiXtXtXwXrXrXrXrXrXrXrXrXrXrXrXrXrXrX",
"rXrXrXrXrXrXrXrXrXrXrXrXrXrXrXqXqXtXsXfXgXfXdXtXwXqXtXtXrXqXqXwXwXwXqXrXiXdXdXdXdXdXdXdXdXdXsXiXrXqXwXrXrXrXrXrXrXrXrXrXrXrXrXrX",
"rXrXrXrXrXrXrXrXrXrXrXrXrXrXrXwXqXrXtXiXiXiXtXrXwXqXwXwXwXqXqXwXtXtXwXwXtXtXtXtXtXtXtXtXtXtXtXtXrXwXrXrXrXrXrXrXrXrXrXrXrXrXrXrX",
"rXrXrXrXrXrXrXrXrXrXrXrXrXrXrXrXrXwXqXqXqXqXqXqXqXwXwXwXwXwXqXrXtXtXrXqXqXqXqXqXqXqXqXqXqXqXqXrXrXrXrXrXrXrXrXrXrXrXrXrXrXrXrXrX",
"rXrXrXrXrXrXrXrXrXrXrXrXrXrXrXrXrXrXwXqXqXqXqXqXqXrXrXtXtXtXwXwXwXwXwXqXqXwXrXrXwXqXqXqXqXqXwXrXrXrXrXrXrXrXrXrXrXrXrXrXrXrXrXrX",
"rXrXrXrXrXrXrXrXrXrXrXrXrXrXrXrXrXrXrXrXwXwXwXwXqXrXtXiXiXtXrXqXqXqXwXwXqXrXtXtXtXrXrXrXrXrXrXrXrXrXrXrXrXrXrXrXrXrXrXrXrXrXrXrX"
};
