/* XPM */
static char *_19201d2d90742fcec24fc7c146de316QiTRgNlXulhCCAY4[] = {
/* columns rows colors chars-per-pixel */
"64 64 82 1 ",
"  c #664E33",
". c #6E5537",
"X c #705637",
"o c #715739",
"O c #745B3B",
"+ c #785E3D",
"@ c #7D623E",
"# c #7E6442",
"$ c #816642",
"% c #856A44",
"& c #896E46",
"* c #896F49",
"= c #8C7147",
"- c #8D734B",
"; c #927547",
": c #91764C",
"> c #94794E",
", c #9A7D4D",
"< c #8F7650",
"1 c #917750",
"2 c #957B52",
"3 c #997E53",
"4 c #997F58",
"5 c #9C804F",
"6 c #9C8155",
"7 c #9E8459",
"8 c #A18555",
"9 c #A58956",
"0 c #A98C56",
"q c #A08559",
"w c #A2875B",
"e c #A1875D",
"r c #A2885B",
"t c #A5895B",
"y c #A68A5A",
"u c #A2895D",
"i c #A58B5F",
"p c #A68C5F",
"a c #AA8E5C",
"s c #AD915E",
"d c #AC905F",
"f c #B1935F",
"g c #A58B60",
"h c #A68C61",
"j c #A78E63",
"k c #A88E61",
"l c #A88F64",
"z c #AB9163",
"x c #AE9260",
"c c #AD9363",
"v c #AA9165",
"b c #AD9367",
"n c #AF9566",
"m c #AC9368",
"M c #AD9469",
"N c #AF966C",
"B c #B19663",
"V c #B09667",
"C c #B59966",
"Z c #B89C66",
"A c #B0976B",
"S c #B59B6B",
"D c #B2996E",
"F c #B99E6B",
"G c #B69E71",
"H c #B89F71",
"J c #BCA16E",
"K c #BDA372",
"L c #BFA876",
"P c #BFA779",
"I c #C0A46F",
"U c #C0A674",
"Y c #C2A976",
"T c #C0A779",
"R c #C5AC7B",
"E c #C8AF7D",
"W c #C9B07F",
"Q c #C7AF80",
"! c #CCB383",
"~ c #CFB888",
"^ c #D0B887",
"/ c #D2BB8A",
/* pixels */
"-4inzvMNMMMMMMMmkknnzhhkcnMMbbbbkhhgghkvbbzbMDMMADDMlkbnbkkkvu4-",
"-4pnkhvbbbMMmmMbvkkkkkhkzbbbbvbvkhhhhhihvzhihvMMvhlvlkkhihkvbe4-",
"-3kVhuhkkznMbvbbbhwwgvkkkvvvvzvzkkhkli7wkkw66iMMu67ibbu77uzMMu2=",
"$-7i73777wiie77eu7227uuee7ee777weeeuu722eu3>:6hg4=-3ii6:-2rkg4=$",
"+$-32:>::143211222:>236322342>2246633211673>>3771-->773-&=263-$+",
"X#*2>>>2242211122332:>631-:222321237321:>37ww7,>123322>:==:1:%#O",
"O$1w667wiiu7337uiir6>3uu3::37hkw227hg73::6ibct3>>6ii3>22>>222-$+",
"@&2iwwtkcckiwuikbnci77uiw767iznkw7egge7637gzst6326zbt33366336:&$",
"#&>7689tturiiieuhkzkg767eiiw77ikzi7326wiie7637uw36icat7233336>*$",
"$-1786666ipkkiwwuvbnvu77hvp7227kbk736uznvu7337gi77gnVa7>23777:&$",
"@*4iw3>2wcVnkewwibMnkiihli7>:3whkhugbDSnhutakhuw7uvAbr3::6uu7=$@",
"$1hDni7evSKHSnbbnASSMnAAnpw76ivMMbvSHKKSMnZJJSDDSSSnbki77rzcz3=$",
"=7DTKGGSSKKPTTKJSSSKKHGSCVnnVSGKKHSSSKKKHKPYKTR!~YSznDSDMvcCJb6-",
">7MGNmMMzhhmDGSnkghkMmlpaakvcnAMMvkhgkvMMMNNnSKRRGg7ubMMlu8aCb7-",
"-163:-11---<46322---12123321>2632111243341<-27wue31-2332>==:33-&",
"4362==141=&=:443632--:>377744232>>4667763:&-4u73::37uw7322>>2>=&",
"hvMnkcSGSzrwaVSSHHSbiehMASKGMlcccnSSSSSSSk7gGPFctaSPPKSVSSVcc8>-",
"vMSKJUE!WYJFFJUEEEEKSSKYKR~~RKKUTYYTUTYEEFzMT!TZCK!//!!WWETJIB7:",
"uhvSSJKTYRTJVBFJJFFCnSTYFJE!RTKTTTKJJJJJUSruSKCBZT!~WE!!WTSSJB8:",
"7waVVVBSKRTJcsSFCBBnnKYTZCKEYTTTTKFFKUJFJc33zSBCKW!YKKRRTZASTSw:",
"winSCcacFTKZBVKKFCVSDKTUFZKTTTRTKJJTRRUFZp23cJSKQ!EJSFUKCcVKWKu=",
"wcFJCsacZJFZFJKKJFFGSHKKJJTTKKKJSFKR!ETFCa8tSTKKRRJCCCSBasFE/Yk>",
"unKKCsBCFFSFKKFFJKKKDSKKKTRTFVBBBFTRRTJZZCcVKKFZFFSSFFBaaBJ!^TM7",
"inKKZSJKJFJKTKSFRWTGMSKEEERYKSBsfFTRTKJJJZcVKYTFCCSKKFBsVKY!~Pnw",
"hbSJJKTTKKRRUFSK~^ESzSY~!ERE!RFffZUETKTTUCriKWRTJJTTKFCFKEE!!Kh2",
"7uaBSKKJFKTKSBBK!RFt7hKRYKZJYTSataCJJFSSSi23cUTTKFFSssVFFFSSJc7-",
"2369izccbMSVkpsCKDi>>6hAMbkkbnz836iVSBi673-:8fCFFni3,6kvg778a93:",
"238appatrpcVvbSSVp737ikvkpkkvkw67uhSFVt336389sCJKSu36rki3>3rst3:",
"6iVFSAca9aVKKKYKSaacSKKSAASKKSr7vGKTTJSzkkcCSKTRETSVZZCa88cKTSw:",
"hSYWYSSBcSKRTEWTSBCTW!EKFFKEEFihK!WETKJFSSKYR!!~~!RTYKCssFY!!Hr:",
"vSR!KSCFKYRRUKYKSCJE!!TJFFJKKSkbKRRUKFCCSKTR!!!!!RTJJCsfSTWWEV8:",
"vSYRJCFT!~WKZBCZSKR!~EYKJZCCFZnSKKFBBccVVSJTE~!QRKJCCVBZKEETJs8>",
"hAKUFFJR!!TZBa0cFR~~!R!RKCsBJKDSHZs99aVSBBBJT!!RYFCBBFJKKJFFJV8>",
"ukCJJKTERTFBataCT~~!RTETJBsBKKDnSca0sSSZVssBZURTJBfBFKTTJCBZUSw:",
"wkVKTRRRTJCssBCKR~!ETKJFSBBCKKMkcBsCKYKFCBBBcFUUCfBJTRTJSCCKEFu:",
"waVKTRRTJCBscZKW!RKFSVBBVFJUTSvpcCCT!!TFJKJSBsBBsBJRRTKFCCFTEHr:",
"ekVJJTTTJCBBcSKRWTZsaasVCKERRSvhbZJR!RJFKYRTJsw6aFYRTJJFFFJKTS8:",
"gbSJZZJKJJJSVCJKKCsascBCZT!~!KnhVKTERUJKR!WTTc73aUEETJJFFFFKYS8;",
"kSKUZCFKUYRKCBFFCcsBFKJFSKR//RDkVJTRUKUR~~EKJCttBKTRERTFCCZTWKi:",
"ibSFcaBZJYRTSccs0acJTRUFVSKW~YvwVKUKFFK!~WKCSVssCFJTETFs0aBUWKi:",
"3wzct9acCJUKSkkt8aAKTTUSbvSKTD76cKKJFZKYRTFcbccBBCZKKFf837sKEHu:",
"27ui67tassBVnkgw8aSKGZZVzkcBCa36kSSVBVVSSCBaihcCVVVVnsa867aSFb7:",
"wuhhwwacat9tsckppzMAncnncccBBcw7kbzkssccbcatwgbSSSnkhkzzaaacBt3-",
"kbDDnASSVt89cZSAMASSVSGSCVCZFFSAVnbcssscnACCADKKKGSbvMDFFZSDSa3-",
"kAHKKTRYJBaaCJJFSSKKKY!EFCFUEELKJJKZBfCFFKYRRRQRRKKFSFKKJJYRRSw-",
"inFTUTTKJCCCJJFSCZKYE!/!TJKRWEYJZSSVsBFTTR!~!!!ETKTTTTTUJKE~~Fu:",
"8aCFCBBBCZFJJFBasCFUYW!!EUUTTUJBa7wr9fZTTRRERUKFSFKTRRTJZJTEESw-",
",6act8,6tnSZFB968aBFFKKKKFZBBsa8>=-26acFJJSbcccsacSKKJScaacVVi3-",
">3ep8,>,7ihbCs9,27kVnVSCnka9766,:=:37iicBsr338as0acAVcs973777621",
"47hbat9rtihbSVsw7wackkcnvkatw77776wikbvnCcr66rcBssnbaaatw7667632",
"ibGKJFFSSCSFKKSVcsBBnnSSSGHFGSncCSSSSKKKKKGDDSFJJFFSVccVSAcznzr6",
"47hMbbMbzakvvMnza999wugkvMMNNnzscVnnMMASDGDMMnccvvvauwwgzzpik7:&",
"@#-1----=-=-122>:===--11124421>>:223421236321::-:-::===----=-$+.",
" o@%$@@%&=&&=:22>:::>>:---=&&*-:-=::-==->3>::&%$$%=:-==&&&==&@X ",
"X#=>;=;389766tvMncskcaw7873>>36t9876356tacaa96>-=26at88667788>%+",
"$:8s99aBCCBssBSKTYYTYJCssaa99asCZCcaasfBCFJJFBt63tVFCfsasBcBZs3&",
"*3aCcsBCCCBcsscFKERREKZsaasa0asBZCBsBBBfsVFJJSbu8aCFVs0asBBCJc6*",
"-6aZCCCCBcBcst9aVHKKKFVaasccssssBcscCCBa9aCJFSScaaBct88acCVCFc3-",
"->8scBBcaacca9868abAVsitsczzcssattwacBa989aBBBVca008337kBCVnVu1&",
"17aSZFZCccCZCcst9tiacccnSZSSZFCVcvknSZCcaasCSFZCCCCstuvSFJFGHk3&",
"wbKEYTTKFFUTUKKJFVscZKUTKUTTTTYTTKKKTYYKFFFKYRUJUYETKJFKTRTE!Ku-",
"7hSKSSSSVCZSSSSSSs88cSFFSSSFSSJJSSSSSSHSSVVSKKSVSKKKKZSSSSSKYD7-",
"-27i7677www7777772::3ww7777w77w766777777777w7e7777eue77777wih7:&",
"#%=:-*&=:>:-&&===&$%&======-=---%%==**&=--====-=&&-==---*--::=&%"
};
