/* XPM */
static char *collectible[] = {
/* columns rows colors chars-per-pixel */
"32 32 94 2 ",
"   c #0E1611",
".  c #0D1C12",
"X  c #121511",
"o  c #1A1712",
"O  c #141A13",
"+  c #1B1B13",
"@  c #201712",
"#  c #241B14",
"$  c #0B2112",
"%  c #112416",
"&  c #1B2216",
"*  c #132817",
"=  c #152B18",
"-  c #1C2C19",
";  c #15321A",
":  c #1C351C",
">  c #173A1D",
",  c #193C1D",
"<  c #2D2A14",
"1  c #2C2818",
"2  c #283316",
"3  c #423619",
"4  c #443B1B",
"5  c #4A3D1D",
"6  c #1B411F",
"7  c #1E4521",
"8  c #224621",
"9  c #234A23",
"0  c #294B24",
"q  c #265226",
"w  c #2C5326",
"e  c #2A5628",
"r  c #2D5C2B",
"t  c #325628",
"y  c #345C2A",
"u  c #33622D",
"i  c #3B642E",
"p  c #34682F",
"a  c #3B682F",
"s  c #3E6431",
"d  c #356A31",
"f  c #3C6B31",
"g  c #3E7033",
"h  c #43421D",
"j  c #4C411E",
"k  c #51401F",
"l  c #4F4A20",
"z  c #524320",
"x  c #564F22",
"c  c #5D4D24",
"v  c #5B5223",
"b  c #5D542D",
"n  c #675727",
"m  c #665F2B",
"M  c #695A29",
"N  c #725E30",
"B  c #436C32",
"V  c #4B6C39",
"C  c #457234",
"Z  c #4A7535",
"A  c #4E7937",
"S  c #487539",
"D  c #4D7B38",
"F  c #517736",
"G  c #507C37",
"H  c #527D39",
"J  c #5A7D3C",
"K  c #68642C",
"L  c #676430",
"P  c #736330",
"I  c #7C6B35",
"U  c #7F6E3A",
"Y  c #597C40",
"T  c #816F37",
"R  c #8D7C3C",
"E  c #54803A",
"W  c #5B843C",
"Q  c #5F8A3D",
"!  c #63843E",
"~  c #62893E",
"^  c #5D8740",
"/  c #658B42",
"(  c #6B8D49",
")  c #6E9145",
"_  c #719244",
"`  c #76964E",
"'  c #769949",
"]  c #7B9C4F",
"[  c #7E9B50",
"{  c #8E803E",
"}  c #92843F",
"|  c #958341",
" . c #998743",
".. c #998844",
/* pixels */
"# # # # # # # # # # # # # # # # # # # # # # # # # # # # # # # # ",
"# # # # # # # # # # # # # # # # # # # # # # # # # # # # # # # # ",
"# # # # # # # # # # # # # # # # # # # # # # # # # # # # # # # # ",
"# # # # # # # # # # # # # # # # # # # # # # # # # # # # # # # # ",
"# # # # # # # # # # # @ + # @ @ # # # # # # # # # # # # # # # # ",
"# # # # # # # # # # # + & O 1 & & + & & X # # # # # # # # # # # ",
"# # # # # # # # # # X t ~ C ! J H Z H B , X # # # # # # # # # # ",
"# # # # # # # # # # o * B f S S p d y 7 * o # # # # # # # # # # ",
"# # # # # # # # # # # o ; D / / D g q . + # # # # 1 # # # # # # ",
"# # # # # # # # # @ # # . u ) E S D 9 . # @ @ @ # # # # # # # # ",
"# # # # # # # + O - & + . e ../ Z D y   + 2 * O # # # # # # # # ",
"# # # # # # #   V [ E = $ d ^ G W W e . 2 H C q X # # # # # # # ",
"# # # # # # @ + ` ( H Y Y H W G D S C i Z W H t X # # # # # # # ",
"# # # # # # # X e W S D V y D _ ~ p i y i i ~ 8 X # # # # # # # ",
"# # # # # # #   9 ' s Z Y y q W Z y i G B r D 7 X # # # # # # # ",
"# # # # # 1 # X y W B y w H 8 A G q H w t u f , X # # # # # # # ",
"# # # # # # # O : D D i B ~ t Z a y E B i r 6 * o # # # # # # # ",
"# # # # # # # # . e S W t Z y F y y B q W B 6 $ # # @ # # # # # ",
"# # # # # # # #   0 ^ f 6 G t Z Z q C 8 Z u , O @ # # # # # # # ",
"# # # # # # # # + $ B Q a t u Z H i t B g q % o 1 @ # # # # # # ",
"# # # # # # # # # O 7 C E E f E G ~ Q E r ; O @ # # # # # # # # ",
"# # # # # # # # # # O > 8 y e 9 0 8 9 9 ; . # # # # # # # # # # ",
"# # # # # # # # # # X 4 m K K v v k j h 2 X # # # # # # # # # # ",
"# # # # # # # # # O b | } }  .} } R I n v < o # # # # # # # # # ",
"# # # # # # # # o < N I T R } { T P I M j 4 + + # # # # # # # # ",
"# # # # # # # # + + 5 3 k 4 n n k k j k 4 < + @ # # # # # # # # ",
"# # # # # # # # # + + + + O + + & # X + + X + # # # # # # # # # ",
"# # # # # # # # # # # # # + # @ + # + # # # # # # # # # # # # # ",
"# # # # # # # # # # # # # # # # # # # # # # # # # # # # # # # # ",
"# # # # # # # # # # # # # # # # # # # # # # # # # # # # # # # # ",
"# # # # # # # # # # # # # # # # # # # # # # # # # # # # # # # # ",
"# # # # # # # # # # # # # # # # # # # # # # # # # # # # # # # # "
};
