/* XPM */
static char *enemy[] = {
/* columns rows colors chars-per-pixel */
"32 32 169 2 ",
"   c #040505",
".  c #01030F",
"X  c #0C0D0F",
"o  c #19100E",
"O  c #060B17",
"+  c #020D1C",
"@  c #0B0D15",
"#  c #111114",
"$  c #15181B",
"%  c #14171A",
"&  c #2E1B1A",
"*  c #261A15",
"=  c #321D1D",
"-  c #352B17",
";  c #010D2D",
":  c #061126",
">  c #0C1524",
",  c #0C1629",
"<  c #01102D",
"1  c #141A24",
"2  c #1B1E21",
"3  c #101D2C",
"4  c #0C1D35",
"5  c #0A1F3F",
"6  c #061C3E",
"7  c #131D33",
"8  c #121D39",
"9  c #1A232E",
"0  c #152236",
"q  c #15243B",
"w  c #1B2639",
"e  c #22222D",
"r  c #3E2823",
"t  c #3E2521",
"y  c #212530",
"u  c #422522",
"i  c #452A23",
"p  c #5A3328",
"a  c #643B2D",
"s  c #6F332C",
"d  c #75382B",
"f  c #73362E",
"g  c #4E4839",
"h  c #734132",
"j  c #7A662D",
"k  c #011644",
"l  c #091F40",
"z  c #0C2344",
"x  c #122545",
"c  c #162947",
"v  c #1B2B44",
"b  c #13274B",
"n  c #152A4B",
"m  c #182D4C",
"M  c #0C2B54",
"N  c #1B3354",
"B  c #17355D",
"V  c #242C43",
"C  c #29364F",
"Z  c #213A5C",
"A  c #243454",
"S  c #353846",
"D  c #1C3965",
"F  c #223D64",
"G  c #203E6B",
"H  c #4E3843",
"J  c #2B435E",
"K  c #30465E",
"L  c #1B406F",
"P  c #194171",
"I  c #264167",
"U  c #25416A",
"Y  c #204370",
"T  c #254977",
"R  c #294975",
"E  c #274878",
"W  c #7D754A",
"Q  c #7F7547",
"!  c #65635F",
"~  c #7F685C",
"^  c #7E6759",
"/  c #7C7550",
"(  c #405A78",
")  c #61596E",
"_  c #5F6368",
"`  c #666560",
"'  c #686661",
"]  c #6C6A64",
"[  c #7C6C65",
"{  c #7D706B",
"}  c #75777A",
"|  c #7A7B7B",
" . c #737477",
".. c #825C43",
"X. c #825740",
"o. c #915E47",
"O. c #B45A44",
"+. c #8D654C",
"@. c #806046",
"#. c #80695C",
"$. c #8D6E4A",
"%. c #B96A50",
"&. c #BC7755",
"*. c #816D63",
"=. c #84736B",
"-. c #8D7D74",
";. c #F5BE15",
":. c #EABF23",
">. c #F3BB25",
",. c #F7C31C",
"<. c #EEC122",
"1. c #FAC325",
"2. c #928278",
"3. c #9D8075",
"4. c #8E9478",
"5. c #989870",
"6. c #DD8E68",
"7. c #D8946D",
"8. c #E08F68",
"9. c #EB956D",
"0. c #DBA273",
"q. c #E6A979",
"w. c #E7A673",
"e. c #F6B17E",
"r. c #FCB77E",
"t. c #13498D",
"y. c #284F81",
"u. c #204E83",
"i. c #2B578A",
"p. c #325D90",
"a. c #345684",
"s. c #376399",
"d. c #3C6BA5",
"f. c #3C6CA9",
"g. c #2E66B1",
"h. c #3971B4",
"j. c #7C7F83",
"k. c #4472AB",
"l. c #4B76A3",
"z. c #4778B3",
"x. c #497AB4",
"c. c #4A7DB9",
"v. c #4377B4",
"b. c #507DB1",
"n. c #3675C2",
"m. c #7E8286",
"M. c #7D848B",
"N. c #7D8590",
"B. c #4F81BE",
"V. c #828383",
"C. c #808488",
"Z. c #878887",
"A. c #949C83",
"S. c #8B8891",
"D. c #FFBA82",
"F. c #CCC3B5",
"G. c #D0C7B9",
"H. c #D2CABC",
"J. c #DDD4C4",
"K. c #DFD7C8",
"L. c #E0D7C7",
"P. c #E0D8C7",
"I. c #E4DBCA",
"U. c #E8DFCE",
"Y. c #E9E0CE",
"T. c #E7E0CE",
"R. c #EBE2D1",
"E. c #F3E9D6",
"W. c #F0E6D5",
/* pixels */
"I.I.I.I.I.I.I.I.I.I.I.I.I.I.I.I.I.I.I.I.I.I.I.I.I.I.I.I.I.I.I.I.",
"I.I.I.I.I.I.I.I.I.I.I.P.P.I.P.I.I.L.P.P.P.I.I.I.I.I.I.I.U.I.I.I.",
"I.I.I.I.I.I.I.I.I.P.P.W.E.E.E.E.E.E.E.E.E.P.K.I.I.I.I.I.I.I.I.I.",
"I.I.I.I.I.I.I.I.I.E.R.V.} | | | -.| | } V.Y.E.I.I.I.I.I.I.I.I.I.",
"I.I.I.I.I.I.I.Y.U.Z.} x l l z k k l 5 6 z } Z.Y.Y.I.I.I.I.I.I.U.",
"I.I.I.I.I.I.I.L.j.z z G U U D W / D U U U z z m.J.U.I.I.I.I.I.I.",
"I.I.I.I.I.I.Y.H.0 F I F D F W >.1.$.L I D I L 0 G.Y.I.I.I.I.I.I.",
"I.I.I.I.I.I.U.H.8 m F F D J :.>.>.<.K B I I c 0 H.Y.I.I.I.I.I.I.",
"I.I.I.I.I.I.I.J. .1 m N F G $.<.1.$.G F N m 1  .J.I.I.I.I.I.I.I.",
"I.I.I.I.I.I.I.R.Y.# O > v m M j j b n v > O % R.R.I.I.I.I.I.I.I.",
"I.I.I.I.I.I.I.J.-.p X > 3 , , ; < , , 3 > X p -.J.I.I.I.I.I.I.I.",
"I.I.I.I.I.I.R.G.u O.& + + v V V V V v + + = O.u H.R.I.I.I.I.I.I.",
"I.I.I.I.I.I.R.G.u O.s a p y 9 3 9 9 9 a a f O.u G.Y.I.I.I.I.I.I.",
"I.I.I.I.I.I.I.J.=.d %.9.6.* o p p o * 6.9.%.d =.J.I.I.I.I.I.I.I.",
"I.I.I.I.I.I.I.I.I.2.o.e.0.& & 8.6.& - 0.q.o.2.T.Y.I.I.I.I.I.I.I.",
"I.I.I.I.I.I.I.I.Y.C.e &.q.+.+.0.0.+.+.q.&.e m.Y.I.I.I.I.T.I.I.I.",
"I.I.I.I.I.I.I.Y.N.D T H &.r.D.e.D.e.e.%.H T L M.R.I.I.I.I.I.I.I.",
"I.I.I.I.I.U.Y.m.y.c.c.i.) #.#.@.^ ^ #.) i.c.c.y.m.Y.I.I.I.I.I.I.",
"I.I.I.I.I.J.m.R x.v.f.c.v.u.P . . G u.n.c.f.z.x.R m.J.I.I.I.I.I.",
"I.I.I.I.Y.L.b h.c.f.U k.z.B.c.7 4 b.A.4.l.L d.x.h.n K.R.I.I.I.I.",
"I.I.I.I.J.2.[ Z.p.M 4 k.c.k.a.7 8 R ,.,.l.4 M p.S.*.2.J.I.I.I.I.",
"I.I.I.U.G.r w.w.S _ 0 s.c.k.A 0 w S 5.5.s.0 _ S w.w.r G.R.I.I.I.",
"I.I.I.U.H.p 7.q.i F.9 B f.f.T : , E g.g.B e G.i q.7.u G.Y.I.I.I.",
"I.I.I.I.J.3.h X.-.F.$ : N F Z - - B Z Z , $ F.2...h =.J.I.I.I.I.",
"I.I.I.I.U.I.=.{ R.J.% 4 w 0 w g g w 0 w 4 $ J.R.{ { I.U.I.I.I.I.",
"I.I.I.I.I.I.E.W.U.H.$ n N n c < < c n N m $ H.U.W.W.I.I.I.I.I.I.",
"I.I.I.I.I.I.I.K.Y.H.2 q v > @ ! ! O > v q 9 H.Y.I.P.I.I.I.I.I.I.",
"I.I.I.I.I.I.I.I.Y.H.# 1 1   ] R.W.]   1 % # H.Y.I.I.I.I.I.I.I.I.",
"I.I.I.I.I.I.I.I.I.J.]     ` I.I.I.R.]     ] J.I.I.I.I.I.I.I.I.I.",
"I.I.I.I.I.I.I.I.I.I.R.] ' R.I.I.P.I.Y.! ` R.U.I.I.I.I.I.I.I.I.I.",
"I.I.I.I.I.I.I.I.I.I.I.W.W.I.I.I.I.I.I.W.W.I.I.I.I.I.I.I.I.I.I.I.",
"I.I.I.I.I.I.I.I.I.I.I.P.P.I.I.I.I.I.I.I.I.I.I.I.I.I.I.I.I.I.I.I."
};
