/* XPM */
static char *exit[] = {
/* columns rows colors chars-per-pixel */
"32 32 177 2 ",
"   c #2D1E1D",
".  c #3D1C16",
"X  c #3E251F",
"o  c #1E1E25",
"O  c #171D27",
"+  c #0A1D32",
"@  c #111E33",
"#  c #211B24",
"$  c #1C212B",
"%  c #0F2035",
"&  c #0F2239",
"*  c #142234",
"=  c #1D2531",
"-  c #12243C",
";  c #22252D",
":  c #2C2329",
">  c #262426",
",  c #382726",
"<  c #3B2C23",
"1  c #32262C",
"2  c #3C2C2A",
"3  c #232A34",
"4  c #2D2833",
"5  c #242D3D",
"6  c #282F3B",
"7  c #342A32",
"8  c #27303C",
"9  c #28303B",
"0  c #3F3A38",
"q  c #313334",
"w  c #431F16",
"e  c #4E2212",
"r  c #4B251B",
"t  c #45231B",
"y  c #5D2512",
"u  c #5C2E16",
"i  c #512A1D",
"p  c #5F3017",
"a  c #5D3218",
"s  c #64220E",
"d  c #6F280D",
"f  c #7A2A0D",
"g  c #682610",
"h  c #642D15",
"j  c #632612",
"k  c #732C11",
"l  c #6E3015",
"z  c #763713",
"x  c #7D3313",
"c  c #763814",
"v  c #7C3813",
"b  c #74391A",
"n  c #432F21",
"m  c #542D21",
"M  c #582E21",
"N  c #453124",
"B  c #43332C",
"V  c #49372F",
"C  c #4B3C34",
"Z  c #443A39",
"A  c #483F3E",
"S  c #4E423B",
"D  c #55483E",
"F  c #122741",
"G  c #132B47",
"H  c #192E4B",
"J  c #172C49",
"K  c #1B3251",
"L  c #242E43",
"P  c #293449",
"I  c #2B3A53",
"U  c #484642",
"Y  c #4E4E46",
"T  c #594C44",
"R  c #5E5149",
"E  c #54524B",
"W  c #5A5B54",
"Q  c #5C5E5A",
"!  c #6F584B",
"~  c #6C5547",
"^  c #635951",
"/  c #64645B",
"(  c #636663",
")  c #686760",
"_  c #6B6C63",
"`  c #686B69",
"'  c #656865",
"]  c #6D706A",
"[  c #72746D",
"{  c #787366",
"}  c #797B73",
"|  c #812E0B",
" . c #86340F",
".. c #88350F",
"X. c #843A0F",
"o. c #9F3608",
"O. c #93350C",
"+. c #813313",
"@. c #8A3610",
"#. c #8D3C15",
"$. c #833A10",
"%. c #963711",
"&. c #963811",
"*. c #A43708",
"=. c #A6380A",
"-. c #AA3B0A",
";. c #B63E08",
":. c #B93F08",
">. c #BA3B05",
",. c #8F4111",
"<. c #9C4918",
"1. c #B3420C",
"2. c #BC4308",
"3. c #BC4507",
"4. c #BC530F",
"5. c #B04518",
"6. c #B24516",
"7. c #BC5310",
"8. c #A54718",
"9. c #9E4823",
"0. c #9D4621",
"q. c #AC4E21",
"w. c #B04F20",
"e. c #C5450A",
"r. c #C8460A",
"t. c #D94905",
"y. c #D34C0C",
"u. c #DA4D0D",
"i. c #D64605",
"p. c #D6570D",
"a. c #DC540C",
"s. c #D7580D",
"d. c #DF5B0D",
"f. c #D35915",
"g. c #E2540D",
"h. c #E35C0D",
"j. c #F75D0E",
"k. c #E3610F",
"l. c #EE650E",
"z. c #F2620B",
"x. c #E26511",
"c. c #EF6B10",
"v. c #F56F11",
"b. c #EF7013",
"n. c #F67213",
"m. c #FD7312",
"M. c #837D6C",
"N. c #847F72",
"B. c #AD7C63",
"V. c #87806E",
"C. c #88816E",
"Z. c #868172",
"A. c #8C8573",
"S. c #8F8976",
"D. c #8E897A",
"F. c #858679",
"G. c #908A77",
"H. c #938D7A",
"J. c #97907D",
"K. c #99927E",
"L. c #969181",
"P. c #9C9582",
"I. c #9F9885",
"U. c #9A9888",
"Y. c #A19A86",
"T. c #A49D8A",
"R. c #A7A08D",
"E. c #A9A28E",
"W. c #ADA591",
"Q. c #AFA996",
"!. c #A7A391",
"~. c #B0A793",
"^. c #B1A995",
"/. c #B7AD98",
"(. c #CBB295",
"). c #C9B89E",
"_. c #E9EBC3",
/* pixels */
"W.~.Y.E.W.W.Y.P.Q.^.Y.P.Q.Y.K.T.E.^.Y.R.^.W.P.K.Q.^.I.P.Q.P.K.R.",
"Y.I.P.^.W.W.T.H.Y.Y.P.E.~.W.J.G.Y.K.K.^.E.E.Y.J.Y.T.I.E.E.W.L.J.",
"T.P.K.T.R.Y.H.I.E.P.K.E./.^.T.~.^.T.T.~.Q.R.J.I.E.J.J.R.~.E.P.R.",
"W.Q.Y.S.I.K.G.W.^.E./ _ [ / _ } [ } { / _ _ H.Q.W.E.J.H.Y.K.R.Q.",
"E.T.J.I.Q.T.J.R.Q.! f @. .@. . . . . . ...| ~ R.E.Y.K.J.P.J.Y.E.",
"P.H.L.Q.E.~.R.P.^ -.j.g.u.u.u.u.u.u.u.u.g.j.-.^ T.G.I.~.E.E.J.J.",
"P.J.J.R.R.E.Y.Y.T 2.y.h.d.h.h.d.h.h.h.d.h.y.2.T R.G.E.W.E.^.J.K.",
"W.T.S.H.I.H.H.W.R ;.y.p.p.p.s.s.s.s.s.p.s.y.;.R Q.I.K.E.E.P.T.E.",
"W.I.I.E.R.J.J.R.D 4.X.a a u u u a u u h a x 7.C Y.^.J.J.J.J.E.Q.",
"Y.J.W.W.E.R.M.Y N <.$.n.h.h.h.d.d.d.d.h.n.v <.< W P.K.E.R.P.K.R.",
"J.Y.Y.E.E.E.} $ 1 O.&.n.k.h.h.h.h.h.h.k.n.%.O.1 $ V.E.W.W.E.G.H.",
"R.W.P.K.R.Y.C.9 7 f x n.h.h.h.h.h.h.h.h.v.x f 7 6 V.Y.W.T.H.P.R.",
"E.R.H.H.Y.I.C.= 1 g x m.b.c.c.c.c.c.c.c.m.x g 1 ; P.T.P.S.J.W.W.",
"R.K.P.R.W.^.K.;   k x b < N n n N n N 2 b x j   q T.P.J.R.J.I.E.",
"K.H.E.^.E.E.P.H.Z d x * J H F J K K K K @ v e 0 I.P.P.W.W.W.K.J.",
"Q.T.H.Y.T.I.D.T 2 y ,.- I 5 L I I I I P % ,.h , S H.P.Y.E.E.P.T.",
"W.~.Y.Y.W.~.F.e r.l X.& - @ G G G G F & + $.l e.e U.P.H.E.P.P.W.",
"Y.Y.P.^.E.W.Y.V s x 1.+.c v z c c z z c v -.+.s C L.K.W.E.~.P.P.",
"E.P.H.Y.T.T.K.T.A o.a.d.z.z.z.z.z.z.l.z.g.a.*.A T.L.P.T.~.E.K.R.",
"~.W.P.K.P.K.G.Z.C *.h.a.d.h.h.h.d.d.d.d.d.h.=.B { E.K.H.Y.K.E.~.",
"W.T.K.Y.~.Y.M.O # 1.v.a.g.h.h.h.h.h.h.h.u.v.1.# $ K.H.J.Y.J.Y.E.",
"P.G.H.W.~.^.L.6 7 2.x.f.x.l.l.l.l.l.l.d.f.x.2.4 9 A.T.E.E.E.K.H.",
"I.H.J.W.T.^.H.3 7 =.B.(.8.d k k k z k 8.(.B.=.4 3 C.W.E.~.E.K.J.",
"W.E.H.H.Y.Y.N.3 : 6.)._.<.y j y y j y <._.).6.: 3 G.J.T.E.K.P.R.",
"W.T.H.Y.T.I.Z.; # #.w.9.&.h h h h h h %.0.w.#.o ; P.L.H.H.H.E.~.",
"T.S.Y.^.W.~.A.; @ w i.t.y.e.y.u.u.y.r.y.t.>.. * ; G.P.E.E.H.K.T.",
"H.I.H.T.Q.R.H.S ; > m M m t r i i i r i M X ; o E H.T.~.W.E.H.H.",
"E.Q.L.G.P.H.I.T.N.) Q ] ' W Q ' ` ` Q Q ( Q ^ { Y.P.H.T.E.P.P.Y.",
"E.~.T.P.Y.Y.L.E.E.I.N.N.N.N.I.Y.L.P.D.D.H.H.A.I.W.T.L.H.G.H.W.W.",
"T.T.Y.~.!.~.T.G.Y.W.P.T.T.J.Y.E.E.T.P.T.W.^.E.H.I.E.J.P.T.H.K.E.",
"P.H.P.W.E.E.P.H.P.H.Y.~.W.~.P.H.I.H.Y.~.E.E.L.G.P.H.Y.^.W.Y.H.H.",
"~.T.G.P.T.P.G.E.W.Y.J.Y.W.T.L.I.Q.Y.H.Y.T.P.G.R.W.Y.K.Y.W.T.K.P."
};
