/* XPM */
static char *floor[] = {
/* columns rows colors chars-per-pixel */
"32 32 66 1 ",
"  c #6D5B46",
". c #6C5D49",
"X c #715F48",
"o c #75634B",
"O c #7A664C",
"+ c #7C694F",
"@ c #756653",
"# c #766956",
"$ c #7C6A52",
"% c #776B59",
"& c #7B6D5B",
"* c #7E715E",
"= c #7D7261",
"- c #846D4D",
"; c #886F4E",
": c #87704F",
"> c #8A714F",
", c #806D53",
"< c #867152",
"1 c #8C7553",
"2 c #8C7857",
"3 c #80725D",
"4 c #8E7A5A",
"5 c #907753",
"6 c #937A55",
"7 c #9B7F55",
"8 c #957E5A",
"9 c #987F5A",
"0 c #817562",
"q c #9D8057",
"w c #94815F",
"e c #9A815C",
"r c #A3865B",
"t c #A6895E",
"y c #AA8C5F",
"u c #948262",
"i c #9B8764",
"p c #9D8966",
"a c #9C8B69",
"s c #A08760",
"d c #A38C65",
"f c #AB8E60",
"g c #A38E69",
"h c #AE9163",
"j c #A6916C",
"k c #AC956C",
"l c #B19465",
"z c #B39768",
"x c #B49A6C",
"c c #B99E6E",
"v c #AC9770",
"b c #AE9972",
"n c #B49D73",
"m c #B89F70",
"M c #B7A175",
"N c #BBA375",
"B c #B6A37A",
"V c #BCA67A",
"C c #BEA87C",
"Z c #C0A676",
"A c #C2A877",
"S c #C1AB7C",
"D c #BEAB80",
"F c #C2AD81",
"G c #C5B184",
"H c #C8B384",
/* pixels */
"O655;799e<69699e9e6665199ee;>56O",
"6llfylllztllllzllzzzlffzlzlryhl6",
"5lhyrlhfhrhhhhhhhlhhfftlhlhryhl5",
">yyXo$O$$o+$$,$$O++o,+O$$$+Xoyf>",
";r7o&#*&*==*#*&**&*&&*=3&0=*oqr-",
"9ll+&@#@%&&#&#@###&&#&*##*.&Oyl5",
"6ly+*&Ou4u48$4uu8i2+w8u1u+%3-yl5",
"9hyo&@6NNGcZgVGFGVBdSSzSSw$3Oyl5",
"9lf$3&9VVNVmpxCCNczdCxBMzw%3+ll6",
"1rrX&#4ScVDCgnmNVVkpCVCzc2@*oqr:",
"6hyo#&umMVVFgxMlCDNjSVxNCw@&oth6",
"8lh+*&2NGNNGjcNcmSVbSVNCH4**Ohhe",
"wllO3$Objdjb+adgebi+njjvdO#3Ohhe",
"9lf$3&8SnhMCwncxVCbwBhBzN<%3$hh8",
"9lh$&#pSCVzNjMNmVCVjmCVxSu%*$hze",
"9lf$3&aNzVCcevCNCVMgVCNVGu*0$hh6",
"exl$*$uSNzMDeMNVMcMpCVCVV2#*$hze",
"ehh+$&pVNVxGjMcNlVVgSCmNHeO&+hl6",
"6hh$**<NMnmx4bMhbVv4VkzBB23*+hlw",
"elhO*O+bbeeboabdgMi+bpjdd+33+hl5",
"ehf+*%pHccDHdCFCNVMjCCGCCi**<hle",
"2hr+3$exhCCNiMFVxNzexBDmCi@*Ort>",
"1frO0%wVVVxDpzmCmxNpNCCMHa%*ort>",
"elh$0*uCNcMNdMMNVmzgSDxVCw%0+hlw",
"9hf+*$wZmNVNaMSNNmxdHmVGC>#*Ofl5",
"9hf+3&+w2w18+2iwww2$w4uwwo#*Ofl1",
"6lf+=o**%&&**&%%*&=*%**%** *+hl6",
"+rq &%**=*&*&%%*#%&&&**%%*%*.qt-",
"1yyO +++<o#$$<+$++$+$Oo++++oOfh5",
"5lhyelflhrfhlllhhhllzyrlfhlqfff5",
"6zlyrzlhzthlllhllhlllfthlllqhlz5",
"O75>;666e<666666eewee2>qewq;555O"
};
