/* XPM */
static char *wall[] = {
/* columns rows colors chars-per-pixel */
"32 32 51 1 ",
"  c #6A5135",
". c #6F5739",
"X c #775D3D",
"o c #785F3E",
"O c #7D623F",
"+ c #7E6340",
"@ c #816642",
"# c #856B45",
"$ c #896E46",
"% c #886E49",
"& c #8B7047",
"* c #8D734B",
"= c #91764D",
"- c #94794F",
"; c #9A7E4E",
": c #917750",
"> c #957B52",
", c #997E53",
"< c #9D814F",
"1 c #9D8255",
"2 c #9E8459",
"3 c #A18555",
"4 c #A68956",
"5 c #A88B57",
"6 c #A1865A",
"7 c #A58A5D",
"8 c #AA8E5C",
"9 c #AD915E",
"0 c #B0935F",
"q c #A68C61",
"w c #A88E62",
"e c #AC9264",
"r c #AD9469",
"t c #B19663",
"y c #B59966",
"u c #B09769",
"i c #B59B6B",
"p c #B99E6B",
"a c #B69E70",
"s c #B89F72",
"d c #BCA16E",
"f c #BDA372",
"g c #BCA579",
"h c #C0A774",
"j c #C2A876",
"k c #C0A778",
"l c #C5AC7B",
"z c #C8AF7E",
"x c #C9B07F",
"c c #CAB282",
"v c #CFB888",
/* pixels */
":ewrrrrrwewwereewqqwewrrrrwewww:",
"*e277eqww,qqqqqqqqq,w,,r>,e,,eq*",
"X===:>::---,:>:->,>:,,,,:-,-$>*o",
"+627e72qe7,w,,we,qq,,e9,,e,,,,>@",
"#,3367q6qeq,w7,7e,,wq,,q,w9,,,,#",
"#q6>eiw7euwew,,wwwsiqtuqwuw,,w,@",
",gssiskfuisutuissuussgdccwuar9d>",
":>#*%#:::%*=,:=>*:>>=#>,::,-*&-$",
"rsplhtphlhesfcspdhfjfwcdtccjjdy-",
"6eypjh9pytulyljhjpdpp,i0hchchud,",
"7pt8fpyhpiahphhjphcdt,dscdyd9dc,",
"whtppphijguhhli0yljpptkpyid9tlcw",
"qyfhflppvpwclhcy0hffp,hldjypjjj,",
">378wtqtu,,ww7w6,wy,,-5yi,;w,,5-",
"qjst8fjltylhihj6gljpudkccfht8jl,",
"ucppzlpfilcfpppejdytijccldy0hzp;",
"wdpjzp88lvlzp9hui58i0tjld0phdyd,",
"7plldtthcjdyypfwtycdpy0d0dldydl,",
"qpphpythh98tdcjwijlpllp,yzddpdf;",
"ehtpjlty9tjdizvwpjdlvdp8phzp0pz,",
",w38tpe74sfpwyi>ipysftwttiy5,yf,",
"qr7u83teeueuttywew99e9wiaewute9:",
"ehjlp0ddihlvphxhdd0dkcccjhfjdcl,",
"3t84tpp49pjlhdp0,,5pjfpytfjptdp>",
">q3;6qt3,ewtq4,,-,7q0,,95e85,,,>",
"qspsyiai00euasstpisfgsapaieeieu,",
".#@@$#*=&&****%*&=*&-=&##&$$#$@ ",
"@3;4088sdpp883390749yy0,,t05889$",
"-ytytt89fjht8080y0y08dpe5y85ttp:",
"=8tt8t833w97tet977t849tt95,wyue*",
"wlhhphfhp8djfjjjjfjjpdldjzhdjjz,",
"%,:-,>=>=$->->>>*-:->->>=>>>:,,$"
};
