/* XPM */
static char *player[] = {
/* columns rows colors chars-per-pixel */
"32 32 183 2 ",
"   c #040409",
".  c #07080C",
"X  c #08090D",
"o  c #0B0507",
"O  c #1F120F",
"+  c #0C0D11",
"@  c #0D131B",
"#  c #131316",
"$  c #1A1516",
"%  c #151518",
"&  c #16181C",
"*  c #1B191C",
"=  c #140807",
"-  c #201616",
";  c #221918",
":  c #2C211F",
">  c #37251D",
",  c #1E1E20",
"<  c #261F20",
"1  c #1E2025",
"2  c #1D262E",
"3  c #222224",
"4  c #2B2423",
"5  c #25262A",
"6  c #2A2A2C",
"7  c #27292D",
"8  c #322926",
"9  c #3C2B23",
"0  c #342D2A",
"q  c #3A2E28",
"w  c #3E332C",
"e  c #2B2E32",
"r  c #302F36",
"t  c #2D3035",
"y  c #3C3530",
"u  c #3C3937",
"i  c #343538",
"p  c #54321F",
"a  c #422B23",
"s  c #502F20",
"d  c #4B3424",
"f  c #44332C",
"g  c #49352C",
"h  c #463125",
"j  c #583729",
"k  c #563C2E",
"l  c #5A3726",
"z  c #453B34",
"x  c #4D3F37",
"c  c #683620",
"v  c #663F2D",
"b  c #733F27",
"n  c #53453A",
"m  c #5A4738",
"M  c #65442F",
"N  c #69482E",
"B  c #78452D",
"V  c #654531",
"C  c #674C35",
"Z  c #744C35",
"A  c #784830",
"S  c #6B543C",
"D  c #775539",
"F  c #202F40",
"G  c #2D3643",
"H  c #464343",
"J  c #484642",
"K  c #4C4945",
"L  c #504A44",
"P  c #54514C",
"I  c #5A524A",
"U  c #5D5851",
"Y  c #604C41",
"T  c #60574E",
"R  c #775841",
"E  c #7C5E42",
"W  c #605951",
"Q  c #6B5C50",
"!  c #63605B",
"~  c #72685B",
"^  c #706152",
"/  c #6E6B64",
"(  c #6E6F69",
")  c #757169",
"_  c #8C4D2F",
"`  c #964F2D",
"'  c #805A3D",
"]  c #9A5634",
"[  c #9B5C3B",
"{  c #91593A",
"}  c #A25D3B",
"|  c #AB5F39",
" . c #A8643F",
".. c #B1643C",
"X. c #B9683D",
"o. c #BE673B",
"O. c #805C44",
"+. c #896547",
"@. c #916647",
"#. c #9C734D",
"$. c #8A6E52",
"%. c #9F7751",
"&. c #9F7558",
"*. c #9A7A56",
"=. c #A76B46",
"-. c #B56B43",
";. c #BB6B40",
":. c #A0764E",
">. c #B2764F",
",. c #A47D55",
"<. c #A37F5A",
"1. c #AC7855",
"2. c #80786D",
"3. c #837E74",
"4. c #C97747",
"5. c #C4784D",
"6. c #CA7747",
"7. c #D67B49",
"8. c #A78159",
"9. c #BA875B",
"0. c #B2865E",
"q. c #8B8377",
"w. c #918A7D",
"e. c #A98A65",
"r. c #B88B62",
"t. c #BD9067",
"y. c #B49369",
"u. c #B79368",
"i. c #BF9E72",
"p. c #D3804F",
"a. c #C28559",
"s. c #D38351",
"d. c #DB8956",
"f. c #D5915F",
"g. c #E48A53",
"h. c #E3925B",
"j. c #F0975D",
"k. c #C5996E",
"l. c #D59867",
"z. c #F09F66",
"x. c #DFA36E",
"c. c #C0A073",
"v. c #D0AE7E",
"b. c #E6A36C",
"n. c #EBA46D",
"m. c #EBAC74",
"M. c #E0A571",
"N. c #F3AC72",
"B. c #FFB576",
"V. c #F9B77C",
"C. c #918C80",
"Z. c #999487",
"A. c #A29A8A",
"S. c #A29F92",
"D. c #ACA494",
"F. c #AEA999",
"G. c #B3AB9A",
"H. c #B9B09E",
"J. c #BFB8A6",
"K. c #BDB6A5",
"L. c #F5BC81",
"P. c #FBBC80",
"I. c #C4BCA9",
"U. c #C3BAA7",
"Y. c #FFC285",
"T. c #FFCB88",
"R. c #C2C6B4",
"E. c #D1C7B3",
"W. c #D3CAB5",
"Q. c #D7CDB8",
"!. c #DCD2BC",
"~. c #E0D4BD",
"^. c #E5DAC2",
"/. c #EADEC5",
"(. c #EDE0C7",
"). c #EEE1C8",
"_. c #F2E5CB",
"`. c #F6E9CE",
"'. c #F6EAD0",
"]. c #FAEDD2",
"[. c #FEF1D5",
"{. c #FFF6DA",
"}. c #FFFCDE",
/* pixels */
").).).).).)._.(./._./.)._./.).).).).).).).).).).).).).).).).).).",
").).).).).).(.(._./._./.).).).).).).).).).(._.(.).).).).).).).).",
").(.).).(._._.(.)._.)._._.).)._.)._.).).(.).).).).).).).).).).).",
").).).).(.(.(._.).).)./.^.)./.^./.^./.)._.).).).).).).).).).).).",
").).(._.(.(._.(._./.[.Z.# D.U 3 0 6 u Q.(._.).).).).).).).).).).",
"(.).(.)._.(._.(./.`.D.6 7 e % + # + # 3 P ^.).).)._.).).).).).).",
"_.(.).).).(.(.(._.W.* * i e , < r 3 % # . ! [.(.).).).).).).).).",
").(.).).).(._.(._.D.# & 3 e e e 5 $ # * X J ~._.).).).).).).).).",
").(._.(.(._.(._.Q.; & & & # 0 ; # # ; # & X ) [.(.).).).).).).).",
").).(.(.(._.(._.W.% # & # &  ...$ % _ l &   ~ [.(.).).).).).).).",
"(._._.(.(.(.(._.!.K # # & B =.[ >.@.j.{ # 1 A.].(.).).).).).).).",
"(.).).(.(._.)./.'.E.: 9 @ 1.R k a.N.k.k . J [.^.(.(.).).).).).).",
"(._.(.(._.(.(.(.'.U.> ;.3 e.T.1.f z.^ =.8 q.`.[.[.).).).).).).).",
"(.(.(._._.(._.(._.!.~ =.} k.Y.l.8.T.<.9.u }.K.! ) /._.(.).).).).",
"(.(._.(.(.(.(.)./.[.R., ] 7.m.L.b.5.4.O.G.!.^ +.E 2./.).).).).).",
"_.(.(.(.(._._./._.!.Q _ j b M.L.x.f...< ( ~ a.V.Y.w !._.).).).).",
").).).).).).).).!.T 9.B.D @ m p.g.&.H [ c h ;.} p.z !._.).).)./.",
").).).).).).).`.E.w m.h.V $.9.g h r F 5.f.l ] o.v F._.).).).).).",
").).).).).).(.`.W.f 4.M +.P.Y.0.2 G 7 | d.M.d.Z S.].).).).).).).",
").).).).).).(.`.E.w n.M.d.n.V.=.r G < g X.6.Z Z.]./.).).).).).).",
").).(.).).).).`.Q.x X.7.X.-. .4 r , , U.I y q.].)./.).).).).).).",
").).).).).).).)._.E.Y ` M 8 q 0 0 r z G.'.(.).).).).).).).).).).",
").).).).).).).)._.`.C.S 8.8.%.%.#.y.c.n G._.).(.).).).).).).).).",
").).).).).).).`.~.w.N H.y.u.S d R y.c.e.H ]./.).).).).).)./.).).",
").).).).).).(.`.!.8 ,.y.8.N U / I D e.*.n K.]./.).).).).).).).).",
").).).).).(.`.~.) h Z ' N U ^.}.Q.n N #.D , I.]./.).).).).).).).",
").).).).).(.`.~.$ p l h P !.`.^.].U.x N Z s n I._.).).).).).).).",
").).).).).).).(.Z.> O L ^.`.(.(./.[.P o ; a = C.[./.).).).).).).",
").).).).).).).).`.G.D.E.`./.(._.(._.U.G.G.G.F.!._.).).).).).).).",
").).).).).).).).(.].[.`.(._.).(.(.(.`.].].].].`.).).).).).).).).",
").).).).).).).).).(.(.(.(.(.(.(._.(.(././././.).).).).).).).).).",
").).).).).).).).).).(.(.(._._.(.(.(.(._.).).).).).).).).).).).)."
};
